<svg width="338" height="336" viewBox="0 0 338 336" fill="none" xmlns="http://www.w3.org/2000/svg">
<path d="M8.68813 326.142H314.238L305.508 330.528H0L8.68813 326.142Z" fill="#1D7A85"/>
<path d="M150.749 331.573H303.837L299.493 336H146.363L150.749 331.573Z" fill="#6B6A6A"/>
<path d="M66.1222 271.047C58.3529 278.274 58.4365 294.982 60.7756 304.088C63.073 313.235 83.6657 317.329 95.069 318.29L96.3639 295.608C84.3758 294.021 72.4295 282.367 66.1222 271.047Z" fill="#F9B384"/>
<path d="M247.53 272.3C255.3 279.526 255.216 296.234 252.877 305.382C250.58 314.488 229.987 318.581 218.542 319.542L217.289 296.861C229.277 295.274 241.223 283.62 247.53 272.3Z" fill="#F9B384"/>
<path d="M137.925 183.455C98.87 198.367 74.3091 237.213 62.321 272.927C69.4638 283.202 83.5403 296.986 95.7373 296.235L212.276 305.048L231.156 294.981C243.103 288.256 253.838 279.025 255.717 267.246C242.058 228.608 204.507 189.344 175.101 183.455H137.925Z" fill="#373562"/>
<path d="M134.082 156.304L125.227 136.798C117.834 135.67 111.317 133.707 100.666 113.49C111.192 116.623 119.17 110.942 128.401 103.382C146.028 85.4621 173.263 70.2995 184.457 105.303C206.512 110.524 195.15 128.36 190.764 137.424L180.698 152.545L134.082 156.304Z" fill="#102048"/>
<path d="M132.662 136.296C148.075 136.004 156.889 127.19 169.169 123.097C172.428 127.9 175.393 130.866 179.904 131.91L180.531 150.498C193.856 142.311 186.964 159.562 181.116 161.442C178.944 168.334 175.56 173.931 170.882 178.568C169.838 184.248 169.88 190.18 169.587 195.819C168.459 203.337 143.23 202.878 142.102 196.696C141.35 190.723 141.852 184.123 140.766 177.899C136.672 174.14 133.832 168.418 132.955 163.698C120.883 159.186 123.932 141.768 133.581 151.125L132.662 136.296Z" fill="#F9B384"/>
<path d="M170.882 178.568C166.663 183.664 151.375 191.266 140.766 177.899C150.039 184.374 159.103 185.334 170.882 178.568Z" fill="#C4855C"/>
<path d="M146.279 168.501C152.628 179.737 161.191 175.769 166.287 167.164C158.226 171.467 153.756 172.052 146.279 168.501Z" fill="#D34439"/>
<path d="M146.279 168.501C151.709 174.725 159.52 174.224 166.287 167.164C158.226 171.467 153.756 172.052 146.279 168.501Z" fill="white"/>
<path d="M137.382 143.856C140.933 137.549 147.031 138.844 151.083 142.77C145.318 141.308 142.186 141.392 137.382 143.856Z" fill="black"/>
<path d="M143.982 149.287C145.151 149.287 146.112 150.54 146.112 152.044C146.112 153.589 145.151 154.801 143.982 154.801C142.812 154.801 141.852 153.589 141.852 152.044C141.852 150.54 142.812 149.287 143.982 149.287Z" fill="black"/>
<path d="M174.683 143.564C171.133 137.257 165.034 138.51 160.983 142.436C166.789 140.974 169.88 141.1 174.683 143.564Z" fill="black"/>
<path d="M167.749 148.827C166.58 148.827 165.661 150.08 165.661 151.584C165.661 153.088 166.58 154.341 167.749 154.341C168.96 154.341 169.879 153.088 169.879 151.584C169.879 150.08 168.96 148.827 167.749 148.827Z" fill="black"/>
<path d="M81.7025 239.636L229.736 238.383L222.802 315.867L229.11 316.493L220.296 327.186H91.7692L81.0759 313.319L89.8895 317.746L81.7025 239.636Z" fill="#E0E7FF"/>
<path d="M152.252 266.077C156.764 266.077 160.439 269.878 160.439 274.598C160.439 279.276 156.764 283.077 152.252 283.077C147.741 283.077 144.065 279.276 144.065 274.598C144.065 269.878 147.741 266.077 152.252 266.077Z" fill="#3E4EA1"/>
<path d="M150.791 37.7604C159.562 28.5709 156.638 13.8678 161.985 5.84788C165.243 0.167124 224.431 -3.25804 224.64 4.59477C224.891 15.4133 222.552 26.5241 216.788 31.3695C208.809 37.1338 178.15 33.458 164.491 32.6226C161.024 35.0871 155.009 37.5515 150.791 37.7604Z" fill="#4E61C9"/>
<path d="M181.199 17.8359C182.578 17.8359 183.706 18.8802 183.706 20.1751C183.706 21.4699 182.578 22.556 181.199 22.556C179.821 22.556 178.693 21.4699 178.693 20.1751C178.693 18.8802 179.821 17.8359 181.199 17.8359Z" fill="white"/>
<path d="M189.679 17.8359C191.099 17.8359 192.227 18.8802 192.227 20.1751C192.227 21.4699 191.099 22.556 189.679 22.556C188.3 22.556 187.173 21.4699 187.173 20.1751C187.173 18.8802 188.3 17.8359 189.679 17.8359Z" fill="white"/>
<path d="M197.239 18.4625C198.659 18.4625 199.787 19.5068 199.787 20.8016C199.787 22.0965 198.659 23.1826 197.239 23.1826C195.86 23.1826 194.733 22.0965 194.733 20.8016C194.733 19.5068 195.86 18.4625 197.239 18.4625Z" fill="white"/>
<path d="M23.2661 135.294H44.4436C45.4461 145.319 40.0995 154.09 34.7111 155.218C26.2318 155.344 24.561 142.353 23.2661 135.294Z" fill="#3E4EA1"/>
<path d="M23.2661 135.294C22.556 123.013 12.9488 116.664 10.9856 108.185C7.30981 89.8058 15.9146 76.5229 32.9986 76.3975C49.5396 75.9381 57.6012 88.678 58.4366 105.637C57.8936 115.954 47.2422 122.219 44.5689 135.461L23.2661 135.294Z" fill="#F4AD4B"/>
<path d="M31.3278 132.746H27.9443L22.8484 102.671H46.5739L43.1905 131.91L38.5122 132.328L38.9716 109.856L30.0329 109.02L31.3278 132.746Z" fill="white"/>
<path d="M254.005 191.057L256.971 181.742C256.72 170.005 256.01 151.918 268.833 146.572C281.866 142.311 306.301 141.476 324.805 147.825C337.086 153.631 339.634 170.882 336.251 184.708C332.867 194.19 279.861 188.384 267.58 185.126L254.005 191.057Z" fill="#2364CC"/>
<path d="M279.902 172.386C279.791 171.996 279.721 171.717 279.694 171.55C279.387 170.464 279.276 169.49 279.359 168.626C279.415 167.958 279.61 167.248 279.944 166.496C280.195 165.967 280.682 165.146 281.406 164.032C282.13 162.918 282.576 162.082 282.743 161.525C282.882 160.941 282.868 160.356 282.701 159.771C282.423 158.685 281.74 157.85 280.654 157.265C279.596 156.68 278.468 156.555 277.271 156.889C276.073 157.223 275.182 157.864 274.598 158.81C274.013 159.757 273.818 161.052 274.013 162.695L271.089 163.113C270.755 160.969 271.075 159.159 272.05 157.683C272.996 156.235 274.5 155.218 276.561 154.633C278.761 154.021 280.682 154.132 282.325 154.968C283.968 155.803 285.026 157.07 285.5 158.769C285.778 159.771 285.792 160.746 285.541 161.693C285.319 162.639 284.706 163.892 283.704 165.452C283.007 166.51 282.576 167.262 282.409 167.708C282.242 168.153 282.158 168.64 282.158 169.169C282.158 169.699 282.297 170.52 282.576 171.634L279.902 172.386ZM281.239 177.983L280.404 174.85L283.536 173.973L284.414 177.106L281.239 177.983Z" fill="white"/>
<path d="M311.314 172.344C311.425 171.982 311.509 171.718 311.564 171.551C311.954 170.464 312.427 169.601 312.984 168.961C313.402 168.432 313.959 167.958 314.655 167.541C315.184 167.234 316.061 166.844 317.287 166.371C318.512 165.87 319.347 165.41 319.793 164.993C320.238 164.603 320.573 164.129 320.795 163.572C321.157 162.514 321.06 161.442 320.503 160.356C319.974 159.27 319.111 158.518 317.913 158.101C316.772 157.683 315.686 157.711 314.655 158.184C313.625 158.63 312.72 159.576 311.94 161.024L309.267 159.73C310.241 157.752 311.536 156.43 313.152 155.761C314.767 155.121 316.591 155.149 318.623 155.845C320.795 156.597 322.313 157.794 323.176 159.437C324.04 161.052 324.193 162.681 323.636 164.324C323.302 165.299 322.759 166.106 322.007 166.747C321.283 167.415 320.057 168.098 318.331 168.794C317.189 169.267 316.41 169.643 315.992 169.921C315.602 170.2 315.254 170.562 314.948 171.008C314.641 171.425 314.293 172.177 313.903 173.263L311.314 172.344ZM309.267 177.691L310.353 174.642L313.402 175.686L312.358 178.777L309.267 177.691Z" fill="white"/>
<path d="M294.146 170.84C294.23 170.478 294.286 170.2 294.313 170.005C294.564 168.891 294.94 167.972 295.441 167.248C295.803 166.719 296.305 166.204 296.945 165.703C297.418 165.341 298.226 164.839 299.368 164.199C300.537 163.559 301.317 163.015 301.707 162.57C302.124 162.124 302.403 161.609 302.542 161.024C302.765 159.938 302.556 158.88 301.916 157.85C301.247 156.847 300.301 156.207 299.075 155.928C297.878 155.65 296.792 155.803 295.817 156.388C294.843 156.945 294.063 157.989 293.478 159.521L290.679 158.518C291.403 156.458 292.531 155.01 294.063 154.174C295.594 153.339 297.418 153.158 299.535 153.631C301.762 154.132 303.405 155.135 304.464 156.639C305.494 158.142 305.828 159.757 305.466 161.484C305.243 162.459 304.798 163.322 304.129 164.074C303.489 164.798 302.347 165.605 300.704 166.496C299.618 167.109 298.894 167.568 298.532 167.875C298.17 168.209 297.864 168.613 297.613 169.086C297.363 169.532 297.098 170.311 296.82 171.425L294.146 170.84ZM292.726 176.438L293.436 173.263L296.611 173.973L295.901 177.148L292.726 176.438Z" fill="white"/>
</svg>
