<svg width="312" height="279" viewBox="0 0 312 279" fill="none" xmlns="http://www.w3.org/2000/svg">
<path d="M86.402 266.48C86.402 268.657 67.0832 270.464 43.2242 270.464C19.3652 270.464 0 268.657 0 266.48C0 264.256 19.3652 262.449 43.2242 262.449C67.0832 262.449 86.402 264.256 86.402 266.48Z" fill="#FFE5E2"/>
<path d="M287.374 270.742C287.374 275.282 249.755 278.988 203.381 278.988C157.006 278.988 119.434 275.282 119.434 270.742C119.434 266.155 157.006 262.449 203.381 262.449C249.755 262.449 287.374 266.155 287.374 270.742Z" fill="#FFE5E2"/>
<path d="M243.964 185.869C244.056 198.887 242.806 211.256 239.47 222.421C239.439 222.421 239.424 222.421 239.424 222.421C230.019 253.647 203.844 275.143 142.644 273.151C59.5315 270.464 44.4285 193.188 37.4793 120.963C31.8272 62.3577 49.4319 19.2262 102.339 5.04976C114.616 1.71414 128.838 0 145.1 0C219.873 0 243.64 136.436 243.964 185.869Z" fill="#FFC55A"/>
<path d="M243.964 185.869C244.056 198.887 242.806 211.256 239.47 222.421C239.439 222.421 239.424 222.421 239.424 222.421C230.019 253.647 203.844 275.143 142.644 273.151C59.5315 270.464 44.4285 193.188 37.4793 120.963C31.8272 62.3577 49.4319 19.2262 102.339 5.04976C114.616 1.71414 128.838 0 145.1 0C219.873 0 243.64 136.436 243.964 185.869Z" fill="#FFC55A"/>
<path d="M239.424 222.421C230.019 253.647 203.844 275.143 142.644 273.151C59.5315 270.464 44.4285 193.188 37.4793 120.963C31.8272 62.3576 49.4319 19.2261 102.339 5.04968C56.8908 32.7076 45.633 83.159 64.2106 159.925C82.7419 236.644 129.58 258.974 159.925 259.021C190.223 259.067 228.305 249.153 239.424 222.421Z" fill="#F49947"/>
<path d="M124.066 72.4108C64.7664 82.9736 90.6175 167.615 103.728 191.335C116.839 215.055 122.445 243.13 152.697 244.381C182.949 245.632 221.633 231.872 225.386 221.912C229.139 211.905 211.997 159.878 211.997 159.878C211.997 159.878 209.634 107.25 193.234 93.4438C176.834 79.5917 143.756 68.9362 124.066 72.4108Z" fill="#F49947"/>
<path d="M243.964 185.869C244.056 198.887 242.806 211.256 239.47 222.421C239.439 222.421 239.424 222.421 239.424 222.421C230.019 253.647 203.844 275.143 142.644 273.151C59.5315 270.464 44.4285 193.188 37.4793 120.963C31.8272 62.3577 49.4319 19.2262 102.339 5.04976C114.616 1.71414 128.838 0 145.1 0C219.873 0 243.64 136.436 243.964 185.869Z" fill="#FFC55A"/>
<path d="M239.424 222.421C230.019 253.647 203.844 275.143 142.644 273.151C59.5315 270.464 44.4285 193.188 37.4793 120.963C31.8272 62.3576 49.4319 19.2261 102.339 5.04968C56.8908 32.7076 45.633 83.159 64.2106 159.925C82.7419 236.644 129.58 258.974 159.925 259.021C190.223 259.067 228.305 249.153 239.424 222.421Z" fill="#F49947"/>
<path d="M124.066 72.4108C64.7664 82.9736 90.6175 167.615 103.728 191.335C116.839 215.055 122.445 243.13 152.697 244.381C182.949 245.632 221.633 231.872 225.386 221.912C229.139 211.905 211.997 159.878 211.997 159.878C211.997 159.878 209.634 107.25 193.234 93.4438C176.834 79.5917 143.756 68.9362 124.066 72.4108Z" fill="#F49947"/>
<path d="M203.38 215.194C192.586 235.44 155.662 242.528 143.015 239.331C135.602 237.478 126.661 230.714 118.554 220.985C113.365 211.859 109.195 201.203 103.729 191.335C101.69 187.629 99.3274 182.44 97.011 176.232C92.5172 154.505 92.6561 128.7 101.134 119.897C112.67 107.991 123.835 99.5594 124.669 92.1932C125.271 86.4022 118.693 78.7117 120.036 73.2913C121.302 72.9516 122.646 72.6581 124.067 72.4111C140.281 69.5387 165.577 76.2563 183.135 86.4485C184.849 92.8881 184.988 101.459 188.972 104.238C195.088 108.501 204.585 135.278 206.948 147.833C209.357 160.388 203.38 215.194 203.38 215.194Z" fill="#F27C49"/>
<path d="M283.899 247.3C284.363 254.897 306.415 245.215 309.333 240.999C309.333 240.999 297.242 275.652 290.988 275.652C284.687 275.652 267.592 257.584 267.592 257.584L269.63 247.3H283.899Z" fill="#AF2F48"/>
<path d="M290.988 275.652C284.131 278.571 301.226 235.486 309.333 236.459C317.441 237.432 299.79 271.854 290.988 275.652Z" fill="#D35473"/>
<path d="M286.493 197.404C286.076 219.688 280.285 247.3 280.285 247.3H266.016C266.016 247.3 257.26 228.49 253.137 209.589C252.118 204.817 251.377 200.045 251.145 195.597C251.145 195.597 229 202.269 207.643 198.284C198.748 196.617 188.648 193.791 179.892 191.057C167.662 187.212 158.025 183.552 158.025 183.552L158.767 182.626L174.379 162.89L216.353 156.589L221.263 155.848L251.145 165.114C277.598 167.986 286.957 175.074 286.493 197.404Z" fill="#31344C"/>
<path opacity="0.5" d="M253.137 209.589C252.118 204.817 251.377 200.045 251.145 195.598C251.145 195.598 229 202.269 207.643 198.285C198.748 196.617 188.648 193.791 179.892 191.057L158.767 182.626L156.914 181.931L153.393 167.291L198.563 151.539L216.353 156.589L246.234 165.114C239.007 178.039 253.554 193.42 256.704 198.007C259.901 202.639 268.981 195.181 274.726 198.007C280.471 200.833 257.724 199.489 253.137 209.589Z" fill="#232433"/>
<path d="M261.569 259.762C268.101 274.031 277.83 280.841 283.019 278.571L280.749 254.897L271.344 250.867L261.569 259.762Z" fill="#AF2F48"/>
<path d="M283.019 278.571C271.483 280.517 273.614 258.14 274.263 247.3C274.911 236.459 283.992 237.432 284.965 245.863C285.937 254.249 290.802 277.274 283.019 278.571Z" fill="#D35473"/>
<path d="M271.344 250.867L261.569 259.762C221.449 248.18 197.822 211.627 197.822 211.627C175.538 237.478 150.567 243.269 130.507 211.627C130.507 211.627 131.758 197.59 148.065 186.749C151.216 184.618 154.922 182.626 159.323 180.911C176.742 174.009 199.906 172.665 214.175 172.572C222.792 172.526 230.854 176.742 235.857 183.737C244.242 195.644 252.257 210.33 258.512 222.977C266.248 238.497 271.344 250.867 271.344 250.867Z" fill="#383952"/>
<path opacity="0.5" d="M271.344 250.867L261.569 259.762C221.449 248.18 197.822 211.627 197.822 211.627C175.538 237.478 150.567 243.269 130.507 211.627C130.507 211.627 131.758 197.589 148.065 186.749L164.882 183.598C145.239 222.143 192.401 213.156 200.926 206.16C209.45 199.118 217.465 192.076 221.264 191.659C225.063 191.289 205.002 206.114 219.179 222.977C233.309 239.841 265.924 250.357 258.512 222.977C266.248 238.497 271.344 250.867 271.344 250.867Z" fill="#232433"/>
<path d="M173.592 58.9295H172.989C172.989 58.9295 167.059 81.6766 156.913 90.1546C155.107 91.6835 153.115 92.749 151.03 93.166C137.363 95.6677 125.457 80.1014 123.187 69.3996C121.936 63.4233 124.159 59.7634 126.383 57.7249C128.097 56.0571 129.811 55.4085 129.811 55.4085C129.811 55.4085 130.738 38.5914 136.575 38.8694C142.227 39.1473 141.301 41.4174 141.208 41.5564C141.579 41.0931 153.856 24.7856 162.288 26.5461C170.905 28.3529 164.882 41.0005 164.882 41.0005C164.882 41.0005 175.676 30.0207 179.29 36.3213C182.904 42.6219 172.248 50.3124 172.248 50.3124C172.248 50.3124 181.421 50.1734 182.301 53.4627C183.228 56.752 181.884 59.9487 173.592 58.9295Z" fill="#102048"/>
<path d="M156.913 90.1547C155.107 91.6835 153.115 92.7491 151.03 93.166C137.363 95.6677 125.457 80.1015 123.187 69.3997C121.936 63.4233 124.159 59.7634 126.383 57.725C128.422 60.3657 131.109 65.6471 137.317 58.9295H140.235L156.913 90.1547Z" fill="#0F1D42"/>
<path d="M193.235 157.84L130.785 215.704C127.773 212.971 125.133 210.145 122.816 207.18C118.6 201.713 115.543 195.829 113.365 189.76C111.744 185.174 110.632 180.448 109.891 175.63C108.176 164.697 108.408 153.207 109.103 141.81C110.724 115.172 118.786 97.3818 150.798 96.9185C150.798 96.9185 165.438 92.7953 176.325 98.679C184.85 103.265 190.409 137.224 192.401 151.539C192.957 155.385 193.235 157.84 193.235 157.84Z" fill="#4E61C9"/>
<path opacity="0.4" d="M179.939 131.479C147.046 143.803 133.471 119.897 133.471 119.897L122.816 158.118L145.563 165.114L185.174 160.99L179.939 131.479Z" fill="#383952"/>
<path opacity="0.4" d="M193.235 157.84L130.785 215.704C127.773 212.971 125.133 210.145 122.816 207.18C133.703 206.346 157.006 180.356 150.891 179.012C145.424 177.808 126.522 190.64 113.365 189.76C111.744 185.174 110.632 180.448 109.891 175.63L129.951 158.118L192.401 151.539C192.957 155.385 193.235 157.84 193.235 157.84Z" fill="#383952"/>
<path d="M158.026 150.15C165.392 145.192 173.916 149.316 176.928 151.539C179.985 153.717 176.928 159.508 176.928 159.508C176.928 159.508 173.638 157.562 172.526 157.284C171.415 157.052 166.133 161.176 155.57 159.508C145.008 157.84 158.026 150.15 158.026 150.15Z" fill="#F9B384"/>
<path d="M115.172 115.589C129.58 104.841 137.734 114.245 137.039 132.776C136.344 151.354 136.344 151.354 136.344 151.354C136.344 151.354 154.69 145.47 159.137 145.47C159.137 145.47 159.554 158.164 159.137 162.704C159.137 162.704 136.993 184.154 122.353 185.776C107.713 187.444 110.632 158.489 109.335 145.146C108.037 131.804 110.215 119.295 115.172 115.589Z" fill="#4E61C9"/>
<path d="M174.379 160.388L185.313 116.191C186.425 111.697 190.455 108.5 195.088 108.5H257.677C261.801 108.5 264.812 112.392 263.793 116.376L251.145 162.565L174.379 160.388Z" fill="#C3C9F4"/>
<path d="M178.781 160.388L189.668 116.191C190.78 111.697 194.857 108.5 199.489 108.5H262.079C266.202 108.5 269.213 112.392 268.194 116.376L255.546 162.565L178.781 160.388Z" fill="#E0E7FF"/>
<path d="M237.479 164.789H157.84C156.636 164.789 155.617 163.77 155.617 162.565C155.617 161.361 156.636 160.388 157.84 160.388H237.479C238.683 160.388 239.656 161.361 239.656 162.565C239.656 163.77 238.683 164.789 237.479 164.789Z" fill="#C3C9F4"/>
<path d="M256.241 164.789H176.603C175.399 164.789 174.379 163.77 174.379 162.565C174.379 161.361 175.399 160.388 176.603 160.388H256.241C257.446 160.388 258.419 161.361 258.419 162.565C258.419 163.77 257.446 164.789 256.241 164.789Z" fill="#E0E7FF"/>
<path d="M177.159 62.6356C178.549 82.9736 175.306 92.0076 163.77 93.1658V97.8913C163.77 101.412 160.898 104.238 157.377 104.238C153.902 104.238 151.03 101.412 151.03 97.8913V93.1658C151.03 93.1658 141.811 89.2279 139.957 83.4369C138.104 77.6459 139.957 82.5103 139.957 82.5103L139.124 58.9293H177.483L177.159 62.6356Z" fill="#F9B384"/>
<path d="M140.513 73.6616C137.595 68.3339 134.213 70.5576 133.518 73.6616C132.823 76.7193 138.985 84.2245 140.513 81.5838C142.042 78.943 140.513 73.6616 140.513 73.6616Z" fill="#F4B8AB"/>
<path d="M134.167 56.3351C140.328 63.8402 157.887 67.7781 164.233 65.9713C170.58 64.1645 161.546 58.2808 161.546 58.2808C161.546 58.2808 173.36 66.3883 178.734 63.7012C184.108 60.9679 169.608 54.3893 169.608 54.3893L134.167 56.3351Z" fill="#102048"/>
<path d="M155.153 72.4109C155.153 73.5227 154.968 74.403 154.736 74.403C154.505 74.403 154.319 73.5227 154.319 72.4109C154.319 71.3453 154.505 70.4651 154.736 70.4651C154.968 70.4651 155.153 71.3453 155.153 72.4109Z" stroke="#191918" stroke-width="1.85313" stroke-miterlimit="10"/>
<path d="M167.662 72.4109C167.662 73.5227 167.477 74.403 167.245 74.403C167.013 74.403 166.782 73.5227 166.782 72.4109C166.782 71.3453 167.013 70.4651 167.245 70.4651C167.477 70.4651 167.662 71.3453 167.662 72.4109Z" stroke="#191918" stroke-width="1.85313" stroke-miterlimit="10"/>
<path d="M162.658 83.4369C156.636 83.5759 152.003 79.2211 152.003 79.2211" stroke="#E56A85" stroke-width="0.926563" stroke-miterlimit="10" stroke-linecap="round"/>
<g opacity="0.5">
<path d="M163.77 93.166C158.628 93.6293 152.698 93.444 152.698 93.444L163.77 97.8915V93.166Z" fill="#DD6595"/>
</g>
<g opacity="0.5">
<path d="M140.235 75.0979C137.641 72.3646 136.344 73.4764 136.529 76.3025C136.714 79.1285 140.096 81.1669 141.208 80.333C142.32 79.5454 140.235 75.0979 140.235 75.0979Z" fill="#DD6595"/>
</g>
<path d="M38.869 216.769C27.3333 212.507 21.0327 214.175 17.5117 209.496C17.5117 209.496 26.87 207.828 32.0588 209.496L38.869 216.769Z" fill="#7C9E1E"/>
<path d="M32.0589 209.496C18.0678 202.176 13.9446 193.883 10.3773 188.185C6.81006 182.44 4.86428 177.715 3.47444 177.298C2.08459 176.927 9.1728 178.317 15.8904 184.988C22.608 191.706 25.3877 192.725 30.7154 198.053C36.0431 203.381 40.7686 211.21 41.3709 216.769H38.8691L32.0589 209.496Z" fill="#B7AC15"/>
<path d="M36.0432 207.504C28.4917 195.922 35.2556 189.251 26.1753 176.14C15.5199 160.759 18.8555 145.331 20.4306 135.695C20.4306 135.695 18.0679 146.953 27.3335 157.886C36.5992 168.82 45.6795 173.082 46.467 189.389C47.2546 205.743 44.1043 216.769 44.1043 216.769H38.8692L36.0432 207.504Z" fill="#7C9E1E"/>
<path d="M42.8999 216.769C40.3518 205.882 45.3089 187.397 45.6796 169.005C46.0965 150.659 35.8117 137.085 51.0073 119.897C51.0073 119.897 47.857 123.048 52.2118 135.695C56.5667 148.296 66.2029 161.546 61.4775 178.502C56.752 195.458 46.5598 209.357 46.6061 216.769H42.8999Z" fill="#B7AC15"/>
<path d="M46.6058 216.769C45.0306 203.705 58.3268 183.413 69.5846 178.873C69.5846 178.873 70.7428 188.88 63.4692 196.987C56.1494 205.141 50.729 216.769 50.729 216.769H46.6058Z" fill="#A88F14"/>
<path d="M50.729 216.769C51.2386 208.106 58.6974 205.048 66.3879 202.825C66.3879 202.825 57.1223 212.183 55.5471 216.769H50.729Z" fill="#426313"/>
<path opacity="0.4" d="M54.3429 217.742C55.6401 211.164 58.6051 209.125 58.0492 208.755C57.5396 208.384 54.1576 213.897 52.4435 216.769C52.4435 216.769 50.2197 209.264 53.6017 202.825C56.9373 196.385 60.1339 191.521 60.1339 191.521C60.1339 191.521 49.2932 204.076 48.7372 210.423C48.7372 210.423 47.579 204.029 49.4785 195.783C51.3316 187.583 56.196 179.707 54.4356 169.978C52.6288 160.249 50.7293 149.825 50.7293 149.825C50.7293 149.825 51.5169 159.74 52.4435 168.31C53.4164 176.927 50.8683 181.421 48.3666 190.594C45.9112 199.767 47.301 212.832 46.2355 212.739C45.1699 212.693 43.4558 215.102 43.4558 215.102C43.4558 215.102 42.3439 201.064 40.6761 189.065C38.962 177.113 39.1473 175.491 31.8738 168.31C24.5539 161.176 23.6274 156.821 23.6274 156.821C23.6274 156.821 28.5381 166.596 32.6613 172.989C36.7382 179.336 38.0354 182.162 38.0354 193.374C38.0354 204.632 38.5913 210.932 39.5179 212.739C40.4908 214.546 32.615 202.083 26.407 197.821C20.2454 193.559 15.1956 187.768 14.6397 186.841C14.0838 185.915 20.616 197.682 25.4805 200.879C30.3449 204.076 38.8693 214.916 38.8693 214.916L24.9245 211.164L40.6761 217.742H54.3429Z" fill="#426313"/>
<path d="M66.7588 220.244L59.3462 262.912C59.2536 263.437 59.0837 263.901 58.8366 264.302C58.0491 265.599 56.6592 266.48 55.0841 266.48H28.4454C26.3606 266.48 24.5538 264.951 24.2295 262.866L17.2803 220.198C16.817 217.557 18.8554 215.194 21.4962 215.194H62.4966C65.1836 215.194 67.1757 217.603 66.7588 220.244Z" fill="#3A3852"/>
<path opacity="0.5" d="M58.8366 264.302C58.0491 265.599 56.6592 266.48 55.0841 266.48H28.4454C26.3606 266.48 24.5538 264.951 24.2295 262.866L17.2803 220.198C16.817 217.557 18.8554 215.194 21.4962 215.194H35.6262C22.5617 235.486 44.3359 259.067 58.8366 264.302Z" fill="#232433"/>
<path d="M105.102 191.335C110.569 201.203 114.739 211.859 119.927 220.985C114.229 214.221 108.948 206.021 104.824 196.987C102.23 191.242 100.006 184.015 98.3848 176.232C100.701 182.44 103.064 187.629 105.102 191.335Z" fill="#FFC55A"/>
</svg>
