<svg width="298" height="283" viewBox="0 0 298 283" fill="none" xmlns="http://www.w3.org/2000/svg">
<path opacity="0.1" d="M287.18 243.002C287.18 237.591 237.532 233.197 176.31 233.197C115.064 233.197 65.4163 237.591 65.4163 243.002C65.4163 247.419 98.0713 251.142 143.085 252.39C148.004 260.206 139.805 269.572 133.554 272.948C122.527 273.48 114.636 274.659 115.872 277.203C121.766 289.228 171.771 276.44 171.771 276.44C171.771 276.44 191.331 277.619 191.331 275.816C191.331 274.983 187.884 274.22 182.228 273.642L182.632 273.619L161.528 252.737C166.352 252.807 171.296 252.83 176.31 252.83C237.532 252.83 287.18 248.436 287.18 243.002Z" fill="#1F3C88"/>
<path d="M296.972 170.899C295.499 194.371 283.354 217.819 263.414 230.723C239.671 246.1 206.446 242.701 179.4 244.644C156.014 246.355 132.461 247.812 109.051 245.384C89.8957 243.395 70.5498 236.018 61.3998 217.912C52.226 199.759 51.2278 175.64 60.4016 157.279C63.3249 151.406 67.2463 146.203 71.857 141.67C72.5938 140.907 73.378 140.19 74.1623 139.473C74.701 138.995 75.2477 138.525 75.8022 138.063C76.642 137.354 77.5055 136.66 78.3927 135.981C78.6779 135.75 78.9711 135.527 79.2721 135.311C79.5573 135.095 79.8504 134.879 80.1515 134.663C80.4525 134.448 80.7535 134.239 81.0546 134.039C81.2764 133.885 81.4982 133.731 81.72 133.577C82.1003 133.314 82.4806 133.052 82.8608 132.79C86.2832 130.547 89.8957 128.582 93.6032 126.894C97.2157 125.229 100.923 123.841 104.678 122.708C116.989 118.985 129.823 117.667 142.538 116.048C169.466 112.603 196.916 111.423 224.057 111.446C246.231 111.446 271.186 114.684 285.992 133.183C294.358 143.636 297.804 157.534 296.972 170.899Z" fill="#EE6F57"/>
<path d="M296.972 170.899C295.499 194.371 283.354 217.819 263.414 230.723C239.671 246.1 206.446 242.701 179.4 244.644C156.014 246.355 132.461 247.812 109.051 245.384C89.8957 243.395 70.5498 236.018 61.3998 217.912C52.226 199.759 51.2278 175.64 60.4016 157.279C63.3249 151.406 67.2463 146.203 71.857 141.67C72.5938 140.907 73.378 140.19 74.1623 139.473C74.701 138.995 75.2477 138.525 75.8022 138.063C76.642 137.354 77.5055 136.66 78.3927 135.981C78.6779 135.75 78.9711 135.527 79.2721 135.311C79.5573 135.095 79.8504 134.879 80.1515 134.663C80.4525 134.448 80.7535 134.239 81.0546 134.039C81.2764 133.885 81.4982 133.731 81.72 133.577C82.1003 133.314 82.4806 133.052 82.8608 132.79C86.2832 130.547 89.8957 128.582 93.6032 126.894C97.2157 125.229 100.923 123.841 104.678 122.708C116.989 118.985 129.823 117.667 142.538 116.048C169.466 112.603 196.916 111.423 224.057 111.446C246.231 111.446 271.186 114.684 285.992 133.183C294.358 143.636 297.804 157.534 296.972 170.899Z" fill="#EE6F57"/>
<path d="M251.341 131.264C251.341 131.264 257.068 126.038 260.087 123.009C263.129 120.002 256.498 119.887 253.242 123.656C249.986 127.425 251.341 131.264 251.341 131.264Z" fill="#F9B384"/>
<path d="M93.6032 126.894C89.8956 128.582 86.2831 130.547 82.8608 132.79C82.4805 133.053 82.1002 133.315 81.72 133.577C81.4982 133.731 81.2763 133.885 81.0545 134.039C80.7535 134.24 80.4524 134.448 80.1514 134.664C79.8504 134.879 79.5572 135.095 79.272 135.311C78.971 135.527 78.6779 135.75 78.3927 135.982C77.5213 136.644 76.6657 137.331 75.8259 138.04L75.8022 138.063C75.2476 138.525 74.701 138.995 74.1623 139.473C73.378 140.19 72.5937 140.907 71.8569 141.67C71.9282 142.271 72.3323 142.85 72.9977 142.988C77.4658 143.867 79.6998 148.006 83.2886 150.365C85.9504 152.123 89.1113 152.585 92.1297 151.591C88.8737 158.297 87.0912 164.933 88.4934 172.426C88.9212 174.692 89.658 176.889 90.6562 178.993C86.497 175.964 82.4567 169.489 80.8169 162.945C80.5792 162.02 79.6048 161.419 78.6541 161.673C77.7035 161.904 77.1093 162.829 77.347 163.777C79.3909 171.894 84.6195 179.687 90.0382 182.739C91.3216 183.456 92.6288 183.919 93.9359 184.127C95.0054 185.468 96.1937 186.717 97.5246 187.827L105.534 190.024L112.07 148.978L93.6032 126.894Z" fill="#B35341"/>
<path d="M116.823 154.458C100.258 148.191 88.7549 141.508 82.0766 137.068C77.7511 134.178 75.5646 129.113 76.4439 124.072L84.9998 75.6496C85.8792 70.6547 89.2778 66.4229 94.0548 64.4342C107.744 58.7225 121.077 55.4388 132.865 53.8663C132.865 53.8663 139.449 53.3576 147.862 54.1669C153.399 54.6757 166.067 58.3293 174.124 60.7574C178.663 62.1218 182.323 65.4517 184.034 69.7529C187.409 78.2396 192.899 92.5305 194.658 100.254C200.695 126.94 199.696 124.974 199.696 124.974L205.947 166.02L139.686 169.628L122.765 162.112L116.823 154.458Z" fill="#4E61C9"/>
<path d="M157.82 7.75607C157.82 7.75607 151.95 -3.94493 136.335 1.39683C125.046 -0.984993 116.443 12.0341 124.761 29.7244L140.423 33.2624L157.82 7.75607Z" fill="#102048"/>
<path d="M149.502 40.8704V61.5668C149.502 66.423 145.462 70.3541 140.471 70.3541C133.721 70.3541 128.255 65.0124 128.255 58.445V40.8704H149.502Z" fill="#F9B384"/>
<path d="M149.502 49.4495V60.7343C140.019 60.8037 133.745 48.8945 133.745 48.8945L149.502 49.4495Z" fill="#E28B6D"/>
<path d="M158.866 38.2574C158.295 41.1248 157.464 44.0617 156.299 46.6516C154.255 51.184 151.142 54.6296 146.365 54.7452C135.218 54.9533 126.615 40.1305 126.615 40.1305L128.397 19.8965L136.858 10.6467L160.197 24.6833C160.197 24.6833 160.244 31.2507 158.866 38.2574Z" fill="#F9B384"/>
<path d="M128.017 34.2105C128.017 34.2105 130.322 25.0995 138.355 19.1796C138.355 19.1796 150.001 34.0024 162.335 26.8338C174.67 19.6883 169.323 5.60552 157.82 7.7561L144.582 6.32239L128.017 11.456L125.212 24.082L128.017 34.2105Z" fill="#102048"/>
<path opacity="0.4" d="M139.734 139.15C128.492 115.539 114.327 126.801 110.881 118.129C106.009 105.989 106.936 92.2299 106.912 88.0675L100.139 125.136C100.139 125.136 115.254 126.547 120.839 135.38L139.734 139.15Z" fill="#1F3C88"/>
<path d="M107.245 87.4431C106.841 90.6111 106.342 93.7792 105.819 96.9241C105.32 100.092 104.75 103.237 104.203 106.382C103.633 109.527 103.039 112.664 102.421 115.794L101.446 120.511C101.09 122.06 100.757 123.633 100.4 125.182L99.9014 125.09C100.091 123.517 100.329 121.922 100.567 120.349L101.304 115.609C101.826 112.448 102.373 109.303 102.943 106.174C103.561 103.029 104.108 99.8841 104.773 96.7391C105.391 93.6173 106.033 90.4724 106.77 87.3506L107.245 87.4431Z" fill="#1F3C88"/>
<path d="M172.888 81.5695C173.791 85.6856 174.623 89.8249 175.431 93.9642C176.263 98.0804 176.999 102.243 177.807 106.382C178.552 110.514 179.289 114.661 180.018 118.823L181.04 125.044C181.372 127.125 181.705 129.206 182.014 131.287L181.539 131.38C181.087 129.322 180.659 127.24 180.232 125.182L178.996 118.985C178.188 114.853 177.403 110.714 176.643 106.567C175.906 102.428 175.146 98.2885 174.456 94.1261C173.743 89.9868 173.054 85.8244 172.436 81.662L172.888 81.5695Z" fill="#1F3C88"/>
<path opacity="0.4" d="M176.025 100.693C176.833 108.209 175.645 147.128 157.012 147.706L157.226 156.192L186.53 154.458L176.025 100.693Z" fill="#1F3C88"/>
<path d="M137.761 146.665C150.975 141.161 153.494 141.37 155.277 141.462C161.385 141.74 170.131 153.602 170.131 153.602L169.988 155.753H136.573L137.761 146.665Z" fill="#E28B6D"/>
<path d="M188.597 159.707H147.458V153.649H188.597V159.707Z" fill="white"/>
<path d="M244.567 159.707H173.054L189.097 97.5486H260.61L244.567 159.707Z" fill="#E0E7FF"/>
<path d="M251.032 134.293C243.973 133.253 221.086 128.628 173.958 156.585L172.864 160.424L244.567 159.707L251.032 134.293Z" fill="#C3C9F4"/>
<path d="M252.386 148.099C251.959 151.036 251.792 155.337 242.476 154.782L239.719 153.417L242.333 150.619L247.942 147.844L252.386 148.099Z" fill="#F9B384"/>
<path d="M253.266 140.19C253.266 140.19 258.376 146.688 253.242 148.677C247.681 150.851 242.333 150.619 242.333 150.619C244.71 144.121 252.434 144.561 252.434 144.561L253.266 140.19Z" fill="#F9B384"/>
<path d="M253.432 136.005C253.432 136.005 260.443 142.364 253.907 144.144C244.686 146.665 241.834 146.85 241.834 146.85C241.335 142.086 250.509 138.988 250.509 138.988L253.432 136.005Z" fill="#F9B384"/>
<path d="M251.982 130.478C251.982 130.478 261.584 136.143 252.576 139.335C243.569 142.503 241.43 142.456 241.43 142.456C240.955 137.693 250.604 136.051 250.604 136.051L251.982 130.478Z" fill="#F9B384"/>
<path d="M241.43 142.456C241.43 142.456 251.911 141.023 255.025 138.572" stroke="#E28B6D" stroke-width="0.608825" stroke-miterlimit="10"/>
<path d="M241.834 146.85C241.834 146.85 252.719 145.347 256.142 143.035" stroke="#E28B6D" stroke-width="0.608825" stroke-miterlimit="10"/>
<path d="M242.333 150.619C242.333 150.619 248.798 150.85 252.434 149.116" stroke="#E28B6D" stroke-width="0.608825" stroke-miterlimit="10"/>
<path d="M140.875 241.753C141.968 241.175 159.198 244.829 178.307 231.046L153.661 224.225L140.875 241.753Z" fill="#102048"/>
<path fill-rule="evenodd" clip-rule="evenodd" d="M232.684 177.467C236.249 176.149 240.004 175.339 243.807 175.062C244.805 174.993 245.827 174.969 246.754 175.316C247.681 175.663 248.489 176.473 248.513 177.444C248.536 178.808 247.134 179.733 245.875 180.311C243.07 181.652 240.123 182.67 237.057 183.387C238.388 183.364 239.719 183.641 240.337 184.705C241.288 186.277 239.909 188.197 238.483 189.353C232.399 194.163 224.271 195.782 215.168 197.331C197.32 200.406 181.087 199.875 152.568 197.863L142.752 185.676L199.792 172.195L241.43 164.656C243.094 162.713 244.9 160.887 246.897 159.222C248.014 158.274 249.772 157.395 250.865 158.389C251.887 159.36 251.174 161.049 250.366 162.182C245.779 168.471 239.172 173.05 232.684 177.467ZM232.66 177.467C232.645 177.482 232.629 177.49 232.613 177.49C232.597 177.505 232.589 177.513 232.589 177.513C232.605 177.498 232.629 177.482 232.66 177.467Z" fill="#B35341"/>
<path d="M154.849 167.477C154.849 167.477 210.391 141.74 228.525 142.896C246.635 144.052 246.041 166.02 239.22 175.571C232.375 185.098 216.333 197.816 157.226 194.07L154.849 167.477Z" fill="#4A5899"/>
<path d="M182.632 273.619C179.638 274.451 175.36 274.636 169.489 273.734C169.489 273.734 161.884 275.653 154.398 277.18C149.335 278.197 144.321 279.03 141.778 278.937C141.556 278.937 141.334 278.929 141.112 278.914C136.193 278.567 129.99 276.07 126.71 272.509C126.71 272.493 126.702 272.485 126.686 272.485C125.783 271.491 125.094 270.427 124.737 269.317C122.955 263.906 126.71 257.362 147.125 258.703C147.125 258.703 153.851 257.177 155.443 252.344C157.012 247.534 145.343 224.41 145.343 224.41L161.979 213.425L178.307 231.069C178.307 231.069 180.778 246.956 180.778 252.159C180.778 252.159 187.718 261.802 188.716 266.034C189.334 268.739 187.956 272.162 182.632 273.619Z" fill="#D3DFFF"/>
<path d="M89.1113 127.194C91.0126 126.477 92.9377 125.922 94.9103 125.39C95.8847 125.113 96.8829 124.882 97.8811 124.674C98.3881 124.581 98.9031 124.504 99.4259 124.442C99.6794 124.396 99.9409 124.365 100.21 124.35C100.495 124.334 100.773 124.342 101.042 124.373C103.157 124.581 105.106 125.229 107.031 125.922C108.932 126.639 110.81 127.425 112.64 128.281C114.494 129.137 116.276 130.085 118.059 131.079C119.817 132.073 121.552 133.114 123.24 134.224C126.591 136.467 129.799 138.941 132.58 141.855L132.224 142.202C130.734 140.892 129.181 139.651 127.565 138.479C125.973 137.3 124.309 136.19 122.598 135.149C119.247 132.998 115.706 131.125 112.093 129.391C110.311 128.512 108.457 127.703 106.603 127.009C104.75 126.315 102.825 125.599 100.947 125.344C100.709 125.321 100.472 125.298 100.258 125.298C100.02 125.321 99.7824 125.344 99.521 125.367C99.0298 125.414 98.5387 125.483 98.0475 125.575C97.0651 125.73 96.0828 125.915 95.1004 126.13C93.1516 126.57 91.179 127.079 89.2777 127.657L89.1113 127.194Z" fill="#1F3C88"/>
<path d="M98.9982 202.881C105.677 202.441 112.236 202.904 117.013 201.285C122.123 199.551 135.432 200.707 135.432 200.707L128.112 190.44L98.4041 197.678L98.9982 202.881Z" fill="#B35341"/>
<path d="M99.2834 183.942C92.4624 173.235 92.4624 152.145 101.066 142.595C110.905 131.703 131.962 127.587 142.966 140.306C153.946 153.024 174.147 199.551 178.307 231.046C178.307 231.069 156.037 223.831 140.875 241.753C140.875 241.753 120.982 197.539 116.823 181.352L105.534 190.023L99.2834 183.942Z" fill="#434C7D"/>
<path d="M116.823 181.352C116.823 181.352 113.852 180.288 109.693 182.97C109.693 182.97 77.2043 182.3 69.9793 189.445C62.7544 196.568 68.2919 206.095 78.8917 207.159C87.7804 208.061 105.035 201.331 110.358 199.158C111.452 198.718 112.592 198.441 113.757 198.371L122.551 197.816L116.823 181.352Z" fill="#D3DFFF"/>
<path d="M129.776 34.7887C129.776 34.7887 127.613 27.782 122.812 29.5394C118.011 31.2969 120.578 40.4311 130.037 42.9748L129.776 34.7887Z" fill="#F9B384"/>
<path d="M124.69 73.5454C127.043 75.1641 129.562 76.5516 132.247 77.5459C134.909 78.5172 137.737 79.1415 140.566 79.0721C143.37 79.049 146.175 78.3553 148.694 77.1066L149.644 76.6441C149.953 76.4822 150.239 76.2741 150.548 76.066C151.118 75.696 151.736 75.326 152.259 74.8635L153.114 74.1929L153.518 73.8691C153.661 73.7535 153.78 73.6148 153.899 73.4991C154.406 73.0058 154.921 72.5125 155.443 72.0192L155.8 72.3198C155.34 72.8748 154.865 73.4221 154.374 73.9616C154.255 74.1004 154.136 74.2391 154.017 74.3547L153.613 74.7247L152.805 75.4878C152.283 75.9966 151.665 76.3897 151.07 76.8291C150.761 77.0372 150.476 77.2684 150.144 77.4534L149.193 78.0084C146.579 79.419 143.584 80.2052 140.566 80.2284C137.571 80.2284 134.6 79.5809 131.867 78.4478C129.134 77.3147 126.615 75.7653 124.405 73.8922L124.69 73.5454Z" fill="#1F3C88"/>
<path d="M111.88 162.875L114.47 171.64C115.349 174.553 116.157 177.49 117.084 180.404C117.964 183.294 118.867 186.208 119.794 189.099C120.269 190.556 120.744 191.989 121.243 193.423C121.505 194.14 121.719 194.88 122.004 195.574C122.258 196.298 122.511 197.015 122.765 197.724L122.337 197.909C121.671 196.522 121.045 195.119 120.459 193.7C119.889 192.29 119.366 190.856 118.819 189.422C117.75 186.555 116.823 183.641 115.944 180.728C115.088 177.791 114.232 174.854 113.496 171.894C112.735 168.957 112.022 165.974 111.428 162.991L111.88 162.875Z" fill="#102048"/>
<path opacity="0.1" d="M182.632 273.619C179.638 274.451 175.36 274.636 169.489 273.734C169.489 273.734 156.917 276.879 148.979 278.105C157.131 276.509 169.014 266.681 167.683 260.461C179.424 264.23 182.608 269.942 182.632 273.619Z" fill="#1F3C88"/>
<path opacity="0.4" d="M151.047 274.705C149.526 276.509 147.268 277.758 144.915 278.359C143.655 278.683 142.396 278.868 141.112 278.914C136.193 278.567 129.99 276.07 126.71 272.509C126.71 272.493 126.702 272.485 126.686 272.485C126.33 272.023 126.021 271.537 125.735 271.052C127.47 272.624 129.372 273.919 131.416 274.914C132.461 275.399 133.483 275.839 134.576 276.162C135.099 276.37 135.67 276.486 136.216 276.625C136.739 276.787 137.31 276.856 137.88 276.949C142.301 277.665 147.03 277.226 151.047 274.705Z" fill="#1F3C88"/>
<path d="M127.637 35.8061C127.518 35.1586 127.209 34.5805 126.853 34.0487C126.496 33.5168 126.044 33.008 125.545 32.6612C125.046 32.3143 124.5 32.1524 124.024 32.3837C123.549 32.6381 123.145 33.193 122.812 33.7943L122.479 33.6787C122.622 32.9849 122.884 32.2218 123.62 31.7362C124.001 31.4818 124.5 31.3893 124.927 31.4818C125.355 31.5512 125.735 31.7362 126.068 31.9674C126.71 32.4299 127.185 33.0081 127.518 33.6787C127.851 34.3262 128.088 35.043 127.97 35.8061H127.637Z" fill="#E28B6D"/>
<path d="M155.895 35.6211C155.681 36.6154 154.92 37.3092 154.184 37.1704C153.423 37.0086 152.995 36.0836 153.209 35.0892C153.423 34.0949 154.184 33.4011 154.944 33.5399C155.681 33.7018 156.109 34.6267 155.895 35.6211Z" fill="#102048"/>
<path d="M144.321 35.1817C144.154 36.1992 143.418 36.916 142.657 36.7773C141.92 36.6617 141.445 35.7598 141.611 34.7655C141.778 33.748 142.514 33.0311 143.275 33.1467C144.012 33.2624 144.487 34.1873 144.321 35.1817Z" fill="#102048"/>
<path d="M149.24 36.5461C149.312 37.3554 149.335 38.1879 149.359 38.9741C149.383 39.2748 149.525 39.5523 149.787 39.8298C150.048 40.1072 150.381 40.3847 150.666 40.7779C150.809 40.986 150.904 41.2403 150.975 41.4947C151.023 41.7491 151.023 41.9803 151.023 42.2347C150.975 42.6972 150.809 43.1828 150.476 43.5759C150.31 43.7609 150.096 43.9228 149.858 44.0384C149.621 44.154 149.359 44.2234 149.098 44.2003C148.599 44.1772 148.147 43.9922 147.791 43.7378L147.957 43.4372C148.337 43.5528 148.717 43.6684 149.074 43.599C149.407 43.5528 149.668 43.3678 149.858 43.1134C150.215 42.5816 150.262 41.7491 149.906 41.2635C149.739 40.986 149.43 40.7085 149.145 40.3616C148.86 40.0147 148.575 39.5291 148.599 38.9973C148.646 38.1648 148.765 37.3323 148.884 36.5229L149.24 36.5461Z" fill="#E28B6D"/>
<path d="M139.663 31.69C140.138 31.2507 140.708 30.8575 141.326 30.58C141.968 30.3026 142.681 30.1638 143.394 30.2101C144.131 30.2332 144.82 30.5107 145.39 30.9038C145.961 31.32 146.412 31.8519 146.721 32.43L146.46 32.6381C145.961 32.2219 145.485 31.8288 144.986 31.5513C144.463 31.2738 143.917 31.1119 143.323 31.0657C142.182 30.9732 141.017 31.4125 139.877 31.9675L139.663 31.69Z" fill="#102048"/>
<path d="M151.76 32.6843C151.95 32.0831 152.473 31.5975 153.043 31.2969C153.637 30.9962 154.303 30.8806 154.944 30.8806C155.61 30.9037 156.251 31.0656 156.822 31.3894C157.392 31.7131 157.867 32.1987 158.105 32.7768L157.82 32.9618C157.012 32.1756 155.99 31.7825 154.92 31.7594C153.875 31.7362 152.758 32.0137 152.068 32.8462L151.76 32.6843Z" fill="#102048"/>
<path d="M143.631 46.2584L151.522 46.8134C151.522 46.8134 147.125 52.4789 143.631 46.2584Z" fill="white"/>
<path opacity="0.4" d="M158.866 38.2573C158.295 41.1248 157.464 44.0616 156.299 46.6515C154.754 45.9346 153.708 44.4084 153.708 42.6278C153.708 40.1998 155.752 38.2111 158.248 38.2111C158.454 38.2111 158.66 38.2265 158.866 38.2573Z" fill="#EE6F57"/>
<path opacity="0.4" d="M143.346 41.6335C143.346 44.0847 141.302 46.0503 138.807 46.0503C136.288 46.0503 134.244 44.0847 134.244 41.6335C134.244 39.1823 136.288 37.1936 138.807 37.1936C141.302 37.1936 143.346 39.1823 143.346 41.6335Z" fill="#EE6F57"/>
<path opacity="0.1" d="M54 235.433C54 237.956 41.9211 240 27 240C12.1074 240 0 237.956 0 235.433C0 232.91 12.1074 230.892 27 230.892C41.9211 230.892 54 232.91 54 235.433Z" fill="#1F3C88"/>
<path fill-rule="evenodd" clip-rule="evenodd" d="M14.6368 226.552C8.7821 226.552 2.27368 218.958 2.27368 213.811C2.27368 208.589 6.96315 204.35 12.761 204.35C18.5305 204.35 23.22 208.589 23.22 213.811C23.22 218.756 20.8895 226.552 14.6368 226.552ZM12.761 207.504C8.92421 207.504 5.82631 210.329 5.82631 213.811C5.82631 217.671 11.0842 223.399 14.6368 223.399C17.8768 223.399 19.6674 217.747 19.6674 213.811C19.6674 210.329 16.5695 207.504 12.761 207.504Z" fill="#286071"/>
<path d="M34.8158 234.777H19.44C16.8821 234.777 14.7789 233.037 14.5516 230.766L11.3684 196.756H43.541L39.7042 230.842C39.4484 233.062 37.3452 234.777 34.8158 234.777Z" fill="#286071"/>
<path d="M15.1199 155.984C14.0399 159.188 13.5568 162.468 14.1536 165.647C14.4662 167.211 14.9778 168.75 15.6599 170.239C16.3989 171.702 17.2799 173.115 18.3031 174.478C19.3831 175.79 20.4915 177.102 21.7704 178.313C22.0547 178.59 22.3957 178.943 22.7368 179.297C23.0494 179.65 23.3904 179.978 23.6747 180.356L24.5273 181.517C24.8399 181.895 25.0104 182.375 25.2378 182.778C25.4936 183.207 25.6073 183.687 25.7778 184.141C25.9483 184.595 25.9768 185.099 26.0336 185.579C26.0904 185.831 26.062 186.058 26.062 186.311L26.0052 187.042C25.9483 187.295 25.8915 187.522 25.8347 187.774C25.7494 188.001 25.6926 188.253 25.5789 188.455L25.2662 189.136C25.1525 189.338 25.0104 189.54 24.8683 189.767C24.7547 189.969 24.5841 190.145 24.442 190.347C24.2715 190.524 24.1294 190.726 23.9304 190.877C23.2483 191.584 22.4525 192.139 21.5147 192.618L20.9178 191.785C22.2536 190.751 23.3336 189.363 23.7031 187.95C23.7599 187.774 23.7883 187.597 23.7883 187.395C23.8168 187.219 23.8736 187.042 23.8736 186.866L23.8452 186.336C23.8452 186.159 23.8168 185.957 23.7599 185.781C23.6747 185.427 23.6462 185.074 23.4757 184.746C23.3052 184.393 23.2199 184.04 22.9641 183.712C22.7652 183.384 22.5947 183.031 22.3389 182.728L21.5715 181.769C21.2873 181.466 20.9747 181.189 20.6904 180.886L19.7526 179.978C19.0704 179.347 18.3883 178.691 17.7631 178.01C17.1094 177.329 16.541 176.597 15.9725 175.891C14.8925 174.377 13.8694 172.838 13.1589 171.147C12.4483 169.457 11.9368 167.716 11.7378 165.899C11.3399 162.317 12.3062 158.684 14.0683 155.606L15.1199 155.984Z" fill="#D3DFFF"/>
<path d="M29.0747 155C31.0642 156.463 32.6842 158.457 33.4231 160.778C33.821 161.938 33.9915 163.149 34.02 164.36C34.02 165.546 33.821 166.732 33.5368 167.893C33.2526 169.028 32.7979 170.138 32.3147 171.198L31.9736 171.929C31.86 172.156 31.7463 172.384 31.661 172.611L31.4621 173.292C31.3768 173.544 31.3484 173.746 31.32 173.973C31.2347 174.2 31.2631 174.427 31.2631 174.654C31.2347 174.881 31.2915 175.083 31.32 175.285C31.32 175.512 31.4336 175.689 31.4905 175.89C31.6042 176.092 31.661 176.294 31.8031 176.471C32.3147 177.202 33.2526 177.833 34.2473 178.237L34.02 179.221C32.6273 179.069 31.2915 178.54 30.24 177.556C29.9842 177.329 29.7852 177.026 29.5863 176.748C29.4158 176.446 29.2168 176.143 29.1031 175.815C29.0179 175.487 28.9042 175.159 28.8758 174.831C28.8473 174.503 28.7905 174.15 28.8189 173.847C28.8473 173.519 28.8189 173.191 28.9042 172.888L29.1031 171.955C29.1884 171.652 29.3305 171.374 29.4158 171.097C29.5294 170.794 29.6431 170.491 29.7284 170.264C30.1831 169.305 30.4958 168.296 30.8084 167.312C31.0737 166.303 31.2347 165.294 31.2915 164.285C31.3484 163.301 31.2631 162.291 31.0926 161.308C30.6947 159.314 29.6431 157.447 28.2505 155.681L29.0747 155Z" fill="#D3DFFF"/>
</svg>
