<svg width="217" height="288" viewBox="0 0 217 288" fill="none" xmlns="http://www.w3.org/2000/svg">
<path fill-rule="evenodd" clip-rule="evenodd" d="M49.7159 56.1767L37.903 48.3692H18.4569C15.061 48.3692 12.3037 45.6119 12.3037 42.2451V32.522C12.3037 29.1552 15.061 26.3979 18.4569 26.3979H41.5311C44.9269 26.3979 47.6842 29.1552 47.6842 32.522V47.7017L49.7159 56.1767ZM18.4569 27.5879C15.6996 27.5879 13.4937 29.7938 13.4937 32.522V42.2451C13.4937 44.9734 15.6996 47.2083 18.4569 47.2083H38.2513L47.8583 53.5355L46.4942 47.8468V32.522C46.4942 29.7938 44.2884 27.5879 41.5311 27.5879H18.4569Z" fill="#ABBAB7"/>
<path d="M35.6394 37.3687C35.6394 38.1814 36.2779 38.8199 37.0616 38.8199C37.8452 38.8199 38.4838 38.1814 38.4838 37.3687C38.4838 36.5851 37.8452 35.9465 37.0616 35.9465C36.2779 35.9465 35.6394 36.5851 35.6394 37.3687Z" fill="#ABBAB7"/>
<path d="M28.5571 37.3687C28.5571 38.1814 29.1957 38.8199 29.9793 38.8199C30.792 38.8199 31.4305 38.1814 31.4305 37.3687C31.4305 36.5851 30.792 35.9465 29.9793 35.9465C29.1957 35.9465 28.5571 36.5851 28.5571 37.3687Z" fill="#ABBAB7"/>
<path d="M21.5044 37.3687C21.5044 38.1814 22.1429 38.8199 22.9266 38.8199C23.7102 38.8199 24.3487 38.1814 24.3487 37.3687C24.3487 36.5851 23.7102 35.9465 22.9266 35.9465C22.1429 35.9465 21.5044 36.5851 21.5044 37.3687Z" fill="#ABBAB7"/>
<path d="M188.132 246.053C178.757 258.533 165.116 267.182 149.82 270.317C117.516 276.992 81.8168 276.296 53.9826 270.288C36.3939 260.507 21.5336 245.733 12.0427 228C11.4622 226.897 10.9107 225.823 10.3592 224.72C-3.60139 196.073 -3.45627 160.925 10.8236 132.394C27.6286 98.784 66.2018 76.1742 103.179 69.4696L154.116 71.9367H154.145C173.997 77.103 190.135 93.0082 199.249 105.75C200.497 107.462 201.629 109.204 202.731 110.974C228.128 152.159 216.895 207.915 188.132 246.053Z" fill="#4E61C9"/>
<path d="M174.346 166.294C168.222 172.999 161.111 178.746 153.797 183.186C138.501 192.416 120.912 197.437 103.179 199.004H34.6235C31.2277 199.004 28.0641 197.989 25.4519 196.218C25.3938 196.179 25.3358 196.131 25.2777 196.073C24.2039 195.26 23.1299 194.274 21.998 193.084C21.998 193.084 21.998 193.074 21.998 193.055C21.94 193.016 21.8916 192.967 21.8529 192.909C12.333 182.635 11.2591 165.511 13.581 152.653C17.151 132.684 28.7316 113.935 43.3598 100.119C57.7558 86.5358 75.8088 77.161 94.7035 71.5593C116.298 65.174 141.636 65.8996 162.475 75.0713C175.333 80.731 185.868 91.557 190.774 104.792C199.016 126.937 189.7 149.547 174.346 166.294Z" fill="#364285"/>
<path d="M174.346 166.294C168.222 172.999 161.111 178.745 153.797 183.186C138.501 192.416 120.912 197.437 103.179 199.033H34.6235C31.2277 199.033 28.0641 197.988 25.4809 196.218C25.3939 196.189 25.3358 196.131 25.2778 196.073C24.0588 195.231 22.9558 194.215 21.998 193.083C21.998 193.083 21.998 193.074 21.998 193.054C19.6471 190.239 18.2539 186.611 18.2539 182.664C18.2539 174.421 27.0482 168.964 34.6235 169.864L43.4179 170.909L103.179 177.962L162.765 168.181L174.346 166.294Z" fill="#6CA398"/>
<path d="M162.765 168.181C160.53 172.244 158.092 176.046 154.406 178.746C150.053 181.938 144.596 183.07 139.633 185.189C135.337 186.988 131.622 189.339 127.036 190.239C122.451 191.168 117.691 191.226 113.105 190.413C107.387 189.397 102.047 187.134 96.4449 185.682C90.9012 184.231 85.3867 184.521 79.727 184.492C73.9221 184.492 68.4946 185.624 62.6317 184.899C60.0776 184.608 57.4654 184.202 55.1144 183.07C50.0933 180.69 47.2489 175.669 43.8821 171.49C43.7273 171.296 43.5725 171.103 43.4177 170.909L103.178 177.962L162.765 168.181Z" fill="#527F77"/>
<path d="M188.132 246.053C178.758 258.533 165.116 267.182 149.82 270.317C117.517 276.992 81.8168 276.296 53.9826 270.288C36.394 260.507 21.5336 245.733 12.0427 228C16.1351 235.662 28.2962 241.554 35.9586 244.543C45.0432 248.084 54.8243 249.652 64.5474 249.971C102.279 251.277 152.2 252.467 179.657 221.527C199.249 199.469 213.441 166.236 208.856 136.428C207.52 127.779 205.344 119.304 202.732 110.974C228.128 152.159 216.895 207.915 188.132 246.053Z" fill="#4E61C9"/>
<path d="M117.545 251.335L114.208 268.082L112.524 276.906L98.999 275.541L100.857 267.734L104.862 248.317L117.545 251.335Z" fill="#FFC4B6"/>
<path d="M147.063 142.785H98.2445C93.6296 142.785 89.8855 146.529 89.8855 151.144V162.579C89.8855 173.521 98.7379 182.374 109.68 182.374H135.628C146.541 182.374 155.393 173.521 155.393 162.579V151.144C155.393 146.529 151.678 142.785 147.063 142.785Z" fill="#212B6B"/>
<path d="M155.393 162.579C155.393 173.521 146.54 182.374 135.627 182.374C124.685 182.374 115.833 173.521 115.833 162.579C115.833 151.666 124.685 142.785 135.627 142.785C146.54 142.785 155.393 151.666 155.393 162.579Z" fill="#212B6B"/>
<path d="M129.474 162.579C129.474 173.521 120.622 182.374 109.68 182.374C98.7379 182.374 89.8855 173.521 89.8855 162.579C89.8855 151.666 98.7379 142.785 109.68 142.785C120.622 142.785 129.474 151.666 129.474 162.579Z" fill="#212B6B"/>
<path d="M110.406 181.764C99.5215 182.722 89.9145 174.683 88.9567 163.798C87.9699 152.914 96.0096 143.307 106.894 142.321C117.778 141.363 127.414 149.402 128.372 160.287C129.358 171.171 121.319 180.778 110.406 181.764Z" fill="#171C51"/>
<path d="M108.664 162.057L106.894 142.32L43.679 153.466L45.0141 168.529L46.3492 183.593L110.405 181.764L108.664 162.057Z" fill="#171C51"/>
<path d="M46.3491 183.593C38.0482 184.318 30.7051 178.194 29.9504 169.864C29.2248 161.563 35.349 154.22 43.6789 153.466C51.9798 152.74 59.3229 158.864 60.0775 167.194C60.8322 175.495 54.679 182.838 46.3491 183.593Z" fill="#171C51"/>
<path d="M47.1329 247.852L48.9904 258.794C49.3387 260.855 48.2358 262.916 46.3202 263.757L38.3966 267.24C33.9269 269.214 35.4071 275.919 40.3122 275.832L62.864 275.396L62.7189 267.385L60.1647 247.62L47.1329 247.852Z" fill="#FFC4B6"/>
<path d="M44.9559 168.413L29.9214 169.951L46.0298 259.056L64.4892 259.201L59.9904 166.875L44.9559 168.413Z" fill="#171C51"/>
<path d="M59.9906 166.875C60.8323 175.205 54.7953 182.606 46.4944 183.448C38.1644 184.289 30.7633 178.252 29.9216 169.951C29.0799 161.621 35.1169 154.22 43.4468 153.379C51.7478 152.537 59.1489 158.574 59.9906 166.875Z" fill="#171C51"/>
<path d="M51.6316 267.589L46.059 263.699L16.9477 277.515C16.1641 277.863 15.6707 278.647 15.6997 279.518C15.6997 280.708 16.6865 281.636 17.8765 281.636L60.6001 280.795C63.0671 280.766 64.8957 278.502 64.4313 276.093L62.7479 267.386L51.6316 267.589Z" fill="#171C51"/>
<path d="M127.646 163.74L112.844 160.693L98.999 260.013L117.023 262.103L142.448 166.788L127.646 163.74Z" fill="#212B6B"/>
<path d="M142.448 166.788C140.649 175.524 132.551 181.242 124.395 179.558C116.21 177.875 111.044 169.429 112.844 160.692C114.643 151.985 122.712 146.267 130.897 147.951C139.081 149.634 144.248 158.08 142.448 166.788Z" fill="#212B6B"/>
<path d="M120.912 281.491L117.748 276.238L114.556 268.169C110.144 270.869 104.63 270.898 100.218 268.198L100.16 268.169L97.0542 276.238L93.9487 281.549C93.8906 281.724 93.8616 281.898 93.8616 282.072V283.9C93.8616 285.206 94.8194 286.251 96.0384 286.251C103.44 288.573 111.363 288.573 118.793 286.309L118.938 286.251C120.128 286.251 121.086 285.206 121.086 283.9V282.159C121.086 281.927 121.028 281.695 120.912 281.491Z" fill="#171C51"/>
<path d="M138.501 182.17C127.675 183.767 117.632 176.278 116.036 165.481C114.44 154.655 121.899 144.584 132.725 143.017C143.551 141.42 153.593 148.88 155.19 159.706C156.786 170.532 149.298 180.574 138.501 182.17Z" fill="#212B6B"/>
<path d="M76.4473 68.3087C75.4314 73.8813 78.9434 79.2218 84.3709 80.5279C84.5644 80.5859 84.7579 80.6343 84.9514 80.673C90.7272 81.7178 96.2418 77.9157 97.3157 72.1399C98.3605 66.3931 94.5584 60.8785 88.7825 59.8046C83.0358 58.7597 77.5212 62.5619 76.4473 68.3087Z" fill="#F4A69F"/>
<path d="M70.8454 115.618C70.0908 119.74 72.7901 123.687 76.9115 124.441C81.0329 125.196 84.9802 122.468 85.7348 118.375C86.4894 114.254 83.7612 110.307 79.6397 109.552C75.5473 108.797 71.6001 111.526 70.8454 115.618Z" fill="#F4A69F"/>
<path d="M97.2862 72.1403C94.5289 87.7263 90.6977 103.109 85.7927 118.173L85.7346 118.376L70.8452 115.618C73.8057 100.091 75.6632 84.3304 76.4469 68.5413V68.3091L97.2862 72.1403Z" fill="#F4A69F"/>
<path d="M76.0697 68.1925C77.1726 62.2426 82.8903 58.2953 88.8693 59.3982C93.4842 60.2399 96.909 63.8679 97.6927 68.2216C97.9249 69.5276 97.8668 70.8628 97.7507 72.1688C97.2863 76.716 96.7445 81.2631 96.1254 85.8102C95.2353 92.1762 94.1517 98.5034 92.8747 104.792L70.9614 102.441C73.0512 92.1955 74.6475 81.8629 75.7504 71.4723L76.0697 68.1925Z" fill="#F49947"/>
<path d="M97.4898 69.673C97.809 75.5359 93.3103 80.5281 87.4764 80.8183C81.6136 81.1376 76.6214 76.6388 76.3312 70.805C76.0119 64.9421 80.5107 59.9499 86.3445 59.6597C92.2074 59.3404 97.1995 63.8392 97.4898 69.673Z" fill="#E28B6D"/>
<path d="M137.253 69.7891C137.543 75.6229 142.535 80.1217 148.369 79.8024C154.232 79.5122 158.73 74.52 158.411 68.6571C158.121 62.8233 153.129 58.3245 147.266 58.6438C141.432 58.934 136.933 63.9262 137.253 69.7891Z" fill="#F4AD4B"/>
<path d="M155.306 142.64L155.074 96.6655L153.013 59.4855C147.905 56.8443 133.625 51.9973 125.992 50.488L102.656 51.591C99.5505 52.7229 91.3657 55.9156 85.6479 58.5568C74.2414 63.8392 84.7772 86.6231 86.3445 94.837C88.173 104.531 88.202 114.428 87.6215 124.238C87.5345 125.748 86.3154 145.861 86.8669 145.861L92.991 144.962C107.909 144.962 115.717 145.078 127.733 145.078C139.894 145.078 145.089 151.434 156.322 151.434L155.306 142.64Z" fill="#F4AD4B"/>
<path d="M75.8667 109.813C71.9195 111.148 69.7717 115.444 71.1068 119.391C72.4129 123.368 76.7085 125.486 80.6848 124.18C84.6321 122.845 86.7798 118.55 85.4447 114.602C84.1386 110.626 79.8431 108.478 75.8667 109.813Z" fill="#F4A69F"/>
<path d="M62.5156 112.193L62.5447 121.887L76.7375 124.412L76.5343 109.639L62.5156 112.193Z" fill="#F4A69F"/>
<path d="M62.5448 121.887C59.8746 121.887 57.6977 119.711 57.6687 117.04C57.6687 114.37 59.8455 112.193 62.5157 112.193C65.1859 112.193 67.3628 114.341 67.3628 117.011C67.3918 119.681 65.215 121.858 62.5448 121.887Z" fill="#F4A69F"/>
<path d="M137.311 70.7468C138.123 76.3195 143.174 80.2668 148.717 79.7733C148.93 79.754 149.133 79.7346 149.327 79.7153C155.132 78.8736 159.137 73.5041 158.295 67.6993C157.483 61.9235 152.084 57.8891 146.308 58.7308C140.503 59.5725 136.469 64.942 137.311 70.7468Z" fill="#FFC4B6"/>
<path d="M147.121 117.36C147.701 121.51 151.532 124.354 155.683 123.774C159.833 123.164 162.678 119.333 162.097 115.183C161.488 111.061 157.656 108.188 153.506 108.798C149.385 109.378 146.511 113.209 147.121 117.36Z" fill="#FFC4B6"/>
<path d="M158.295 67.6989C160.675 83.3719 161.923 99.161 162.097 114.979V115.182L147.121 117.359C144.944 101.686 141.693 86.1582 137.369 70.9496L137.311 70.7464L158.295 67.6989Z" fill="#FFC4B6"/>
<path d="M115.166 55.8863C110.783 56.9312 107.126 57.4246 106.11 53.042L105.297 49.5881L105.239 49.443V49.3269L101.321 32.667L100.305 28.4585L116.21 24.7144L116.53 26.1365L118.416 34.0892V34.1182L118.445 34.2053L118.503 34.4375L121.986 49.2978C123.031 53.6805 119.577 54.8705 115.166 55.8863Z" fill="#F9B384"/>
<path d="M118.445 34.2053C118.426 34.3407 118.407 34.4568 118.387 34.5536C118.01 36.4401 117.487 38.2977 116.733 39.952C114.527 44.741 110.173 47.9627 105.297 49.5881L105.239 49.443V49.3269L101.321 32.667L100.305 28.4585L116.21 24.7144L116.53 26.1365L118.416 34.0892V34.1182L118.445 34.2053Z" fill="#EA8883"/>
<path d="M114.324 48.0787L102.656 51.5907C102.424 55.0155 105.036 58.2662 108.461 58.4984H116.675C120.535 58.4984 124.366 56.0023 125.556 52.3163C125.691 51.8712 125.808 51.4165 125.904 50.9521C125.933 50.836 125.962 50.6619 125.991 50.4878L114.324 48.0787Z" fill="#F9B384"/>
<path d="M51.2249 117.882C51.341 117.863 51.4571 117.843 51.5732 117.824C52.2117 117.766 52.8212 117.94 53.4308 117.998C54.0693 118.027 54.7368 117.94 55.1722 117.505C55.4334 117.244 55.5495 116.924 55.6946 116.605C56.0623 115.657 56.3719 114.689 56.6234 113.703C54.8239 113.722 53.0341 113.741 51.2539 113.761C50.9056 113.761 50.5864 113.761 50.2961 113.906C47.6549 115.241 45.4201 118.259 43.6206 120.581C43.3594 120.93 43.0691 121.394 43.2433 121.8C43.3303 122.004 43.5335 122.149 43.7367 122.236C44.3172 122.497 44.9847 122.381 45.5652 122.091C46.1167 121.8 46.581 121.336 47.0454 120.93C48.1774 119.885 49.6286 118.23 51.2249 117.882Z" fill="#F7B6AD"/>
<path d="M60.9481 112.425C58.423 113.267 57.0588 115.995 57.9005 118.55C58.7422 121.075 61.4705 122.439 63.9956 121.568C66.5207 120.726 67.8848 117.998 67.0431 115.473C66.2014 112.948 63.4732 111.584 60.9481 112.425Z" fill="#F7B6AD"/>
<path d="M69.3069 122.061L50.0059 121.974C50.2381 120.697 50.9347 119.594 51.6603 118.52C52.6761 117.011 53.75 115.531 55.0851 114.312C56.3912 113.151 58.1326 112.019 59.8451 112.019C62.6894 112.019 63.5892 112.135 64.9823 112.89C67.3623 114.167 69.3069 116.663 69.3069 119.681V122.061Z" fill="#F7B6AD"/>
<path d="M70.8163 119.885C70.2358 119.362 69.5973 118.927 68.9298 118.55C68.3202 118.259 67.4785 118.201 66.9271 117.853C65.8532 117.214 65.8242 115.154 66.0854 114.08C66.0854 114.022 66.1144 113.993 66.1434 113.964C66.1724 113.935 66.2305 113.964 66.2595 113.964C67.7397 114.37 69.249 114.747 70.5841 115.531C71.3097 115.937 71.9192 116.547 72.5287 117.127C73.9219 118.491 75.257 119.885 76.6212 121.278C76.6792 121.336 76.7373 121.423 76.7663 121.51C76.7953 121.655 76.7082 121.8 76.6212 121.916C76.1858 122.41 75.4602 122.555 74.8216 122.526C74.1251 122.468 73.4575 122.236 72.906 121.887C72.0934 121.365 71.5129 120.552 70.8163 119.885Z" fill="#F7B6AD"/>
<path d="M58.9744 112.803C58.3358 112.803 57.7263 113.122 57.291 113.587C56.5363 114.341 56.0139 115.357 55.6656 116.373C54.911 118.579 54.1564 120.755 53.1986 122.874C53.1115 123.048 53.0244 123.252 53.1115 123.397C53.1696 123.513 53.2857 123.571 53.4018 123.629C54.1564 124.006 55.1142 124.006 55.8978 123.6C57.8715 122.584 58.3358 119.536 59.0324 117.65C59.2936 116.924 59.6129 116.17 60.2514 115.763C61.2673 115.183 62.6604 115.734 63.6763 115.125C62.5927 114.525 61.5188 113.935 60.4546 113.354C59.9902 113.093 59.5258 112.832 59.0324 112.803C59.0131 112.803 58.9937 112.803 58.9744 112.803Z" fill="#FFC4B6"/>
<path d="M117.72 134.397C113.569 133.352 107.59 132.887 103.324 132.975C98.97 133.091 93.7457 137.502 91.8591 141.246C91.356 142.253 90.8433 143.268 90.3208 144.294C90.2047 144.555 90.0886 144.932 90.3208 145.136C90.6981 145.455 92.1784 145.223 92.6137 145.107C92.9911 144.991 93.3393 144.787 93.6586 144.526C94.2681 144.091 94.8196 143.568 95.284 142.988C94.9937 143.336 94.5293 144.729 94.8486 145.107C95.342 145.658 96.6481 145.484 97.3156 145.339C98.1573 145.194 98.941 144.758 99.5505 144.149C100.189 143.539 100.711 142.814 101.379 142.204C102.482 141.246 103.904 140.695 105.297 140.173C103.411 141.072 102.424 142.669 101.147 144.352C100.566 145.136 99.6956 146.529 101.379 146.326C102.511 146.21 103.237 145.223 104.049 144.555C104.833 143.888 105.53 142.988 106.516 142.64C107.706 142.204 108.896 143.017 109.999 143.365C110.812 143.597 111.654 144.004 112.495 144.091C113.453 144.178 114.237 143.742 115.136 143.568C115.601 143.481 116.181 143.568 116.646 143.597C117.168 143.636 117.7 143.684 118.242 143.742C118.59 142.465 118.503 141.072 118.3 139.766C118.155 138.866 117.981 137.938 117.865 137.038C117.778 136.167 117.865 135.267 117.72 134.397Z" fill="#F9B384"/>
<path d="M96.4738 133.439C95.3419 133.613 94.5292 134.658 93.8907 135.645C93.4844 136.283 93.078 136.922 92.7297 137.619C92.0622 138.867 91.5978 140.231 91.3366 141.624C91.3075 141.827 91.2495 142.03 91.3076 142.233C91.4237 143.017 92.5846 143.22 93.2522 142.814C93.9487 142.379 94.297 141.595 94.7324 140.927C96.1255 138.634 98.6797 137.096 101.35 136.922C101.93 136.893 102.569 136.864 102.917 136.429C103.207 136.022 103.12 135.413 102.801 135.006C101.785 133.642 98.0702 133.149 96.4738 133.439Z" fill="#F9B384"/>
<path d="M118.184 134.136C115.514 134.397 113.569 136.719 113.802 139.389C114.034 142.03 116.385 143.975 119.026 143.743C121.696 143.51 123.641 141.159 123.409 138.518C123.176 135.848 120.825 133.903 118.184 134.136Z" fill="#F9B384"/>
<path d="M148.253 128.36L147.527 130.507L145.002 128.65L148.253 128.36Z" fill="#2364CC"/>
<path d="M140.62 117.359L139.11 117.65L139.226 118.637L141.345 118.346L140.62 117.359Z" fill="#2364CC"/>
<path d="M121.319 142.93L116.182 134.774C121.116 131.668 130.055 125.051 136.789 119.827C142.536 115.386 147.731 111.671 150.72 109.784L158.789 122.613C146.541 129.753 134.061 136.515 121.377 142.901L121.319 142.93Z" fill="#F9B384"/>
<path d="M150.575 109.871C147.034 112.106 145.96 116.779 148.195 120.32C150.43 123.861 155.103 124.906 158.644 122.7C162.185 120.465 163.23 115.792 161.024 112.251C158.789 108.71 154.116 107.665 150.575 109.871Z" fill="#FFC4B6"/>
<path d="M116.036 134.861C113.772 136.283 113.105 139.273 114.527 141.508C115.949 143.771 118.91 144.439 121.173 143.017C123.437 141.595 124.105 138.634 122.683 136.37C121.261 134.135 118.3 133.439 116.036 134.861Z" fill="#F9B384"/>
<path d="M163.549 100.09C162.678 89.1481 161.14 78.2059 158.731 67.5831C157.367 61.6622 152.519 57.3956 146.221 58.2954C141.693 58.9629 137.978 62.4458 137.05 66.9446C136.382 70.1082 137.659 73.2428 138.501 76.2613C141.2 86.0425 141.722 87.813 146.221 111.439L139.11 117.65C143.261 119.652 146.599 125.225 147.527 130.507C154.58 126.56 164.594 123.193 164.274 113.441C164.129 109.001 163.897 104.531 163.549 100.09Z" fill="#F49947"/>
<path d="M141.345 116.837C145.583 119.478 148.427 123.832 149.269 128.737C149.356 129.317 150.256 129.085 150.14 128.505C149.298 123.367 146.221 118.811 141.81 116.053C141.316 115.734 140.852 116.518 141.345 116.837Z" fill="#1D7A85"/>
<path d="M144.19 180.429L136.266 184.464L125.063 181.126L117.081 152.508L122.654 147.632L144.19 180.429Z" fill="#212B6B"/>
<path d="M100.479 148.532L41.7343 152.798C38.8899 153.001 36.2777 151.144 35.5521 148.357L25.0454 107.956C24.4939 105.866 25.9741 103.805 28.1219 103.66L82.6874 99.7129C85.5898 99.5098 88.231 101.396 88.9566 104.212L100.479 148.532Z" fill="#A9ABB8"/>
<path d="M130.781 142.436L37.8743 149.141C37.3228 149.199 36.9165 149.663 36.9745 150.215L37.0906 152.131C37.1487 152.682 37.6131 153.088 38.1645 153.059L131.071 146.326C131.622 146.297 132.029 145.803 131.971 145.281L131.855 143.336C131.796 142.785 131.332 142.378 130.781 142.436Z" fill="#A9ABB8"/>
<path d="M97.6349 148.764L38.89 153.001C36.0457 153.204 33.4335 151.347 32.7079 148.56L22.2011 108.159C21.6497 106.069 23.1299 104.008 25.2777 103.863L79.8431 99.916C82.7455 99.7128 85.3577 101.599 86.1123 104.415L97.6349 148.764Z" fill="#E0E7FF"/>
<path d="M62.5739 126.212C62.748 128.534 61.0065 130.536 58.7136 130.711C56.3917 130.885 54.389 129.143 54.2149 126.821C54.0407 124.528 55.7822 122.497 58.1041 122.352C60.397 122.177 62.4287 123.919 62.5739 126.212Z" fill="#3E4EA1"/>
<path d="M99.202 55.0738C100.276 57.5989 101.582 60.2401 104.339 61.285C105.791 61.8655 107.387 61.9526 108.925 62.0106C110.976 62.0687 113.018 62.059 115.049 61.9816C118.155 61.8655 121.841 61.8945 124.627 60.2982C127.094 58.905 128.023 56.0897 129.097 53.6807C129.329 53.1292 128.545 52.6648 128.284 53.2163C127.297 55.4221 126.485 58.0924 124.308 59.4275C121.812 60.9657 118.329 60.9077 115.514 61.0528C112.437 61.1689 109.07 61.4301 106.023 60.8206C102.772 60.1821 101.292 57.628 100.102 54.8126C99.8986 54.2902 98.9698 54.5224 99.202 55.0738Z" fill="#1D7A85"/>
<path d="M89.6533 31.477C90.6981 33.2765 92.8169 34.0312 94.3842 33.1024C95.9515 32.2026 96.3869 29.9968 95.342 28.1973C94.2972 26.3978 92.1784 25.6722 90.6111 26.572C89.0438 27.4717 88.6084 29.6775 89.6533 31.477Z" fill="#EA8883"/>
<path d="M125.382 21.8991C125.005 23.4084 124.482 24.9176 123.815 26.3398C123.437 27.2105 123.002 28.0522 122.334 28.6908C121.144 29.8227 119.374 30.2 117.749 30.1129C116.094 30.0259 114.498 29.5324 112.901 29.2712C109.883 28.7488 106.632 28.8359 103.701 29.7066C100.856 30.5773 97.6928 30.8966 94.8194 29.9098C92.1782 29.01 89.9724 27.0364 88.5212 24.6854C87.5053 23.031 86.8087 21.2025 86.4604 19.3159C86.1702 17.6616 86.1992 15.8911 87.07 14.4109C86.2863 12.7855 87.2151 10.4636 88.0568 9.04138C89.7692 6.16799 92.4394 3.72996 95.4289 2.27876C99.8116 0.159991 104.949 -0.623661 109.709 0.537305C112.466 1.20486 116.442 2.8012 117.923 5.4424C119.577 5.2102 120.912 5.41337 122.102 6.34214C124.598 8.25773 125.73 10.986 126.049 14.0626C126.282 16.6748 126.02 19.345 125.382 21.8991Z" fill="#102048"/>
<path d="M123.873 24.2791C121.957 23.4664 119.868 24.5693 119.026 26.3979C118.823 26.8332 118.649 27.3847 118.068 27.3847C117.314 27.4427 117.285 26.6591 117.314 26.1076C117.43 24.8015 117.691 23.8727 117.807 22.7989C115.63 21.5798 113.976 19.403 113.047 16.994C112.176 17.023 111.306 17.1972 110.522 17.4584C106.575 18.8225 103.15 21.754 98.9993 22.1023C96.184 22.3345 93.1074 21.3186 91.1338 19.316C91.1338 19.432 91.1338 19.5481 91.1338 19.6642C91.2209 21.0574 91.1918 22.1313 91.2208 23.3503C91.2499 23.4954 91.2499 23.6405 91.2499 23.7566C91.5401 28.6908 91.8884 33.7119 93.775 38.2687C94.8779 40.997 96.5033 43.4641 98.7091 45.0604C98.9993 45.2732 99.3089 45.4667 99.6378 45.6409C101.06 46.4536 102.743 46.9179 104.659 46.8889C107.794 46.8309 111.073 45.6409 113.744 43.7253C114.905 42.8836 115.949 41.8967 116.82 40.8229C117.168 40.3778 117.478 39.9231 117.749 39.4587C119.142 37.1948 119.897 34.6407 119.984 31.9995C121.087 31.9995 122.19 31.7093 123.147 31.1868C123.728 30.8676 124.221 30.4322 124.599 29.9388C125.818 28.3425 126.079 25.2079 123.873 24.2791Z" fill="#F9B384"/>
<path d="M120.1 28.2843C120.274 26.659 121.812 25.7012 123.35 26.2817C123.554 26.3687 123.641 26.0204 123.438 25.9334C121.725 25.2948 119.955 26.3977 119.751 28.1972C119.722 28.4294 120.071 28.5165 120.1 28.2843Z" fill="#EA8883"/>
<path d="M98.0124 30.4612C98.0124 31.0417 97.519 31.5061 96.9385 31.4771C96.358 31.4771 95.8937 30.9836 95.9227 30.4032C95.9227 29.7936 96.4161 29.3583 96.9966 29.3583C97.577 29.3873 98.0414 29.8807 98.0124 30.4612Z" fill="#25274D"/>
<path d="M107.155 29.6195C107.126 30.2 106.632 30.6644 106.052 30.6354C105.471 30.6354 105.007 30.1419 105.036 29.5615C105.065 28.981 105.529 28.5166 106.139 28.5166C106.719 28.5456 107.155 29.039 107.155 29.6195Z" fill="#25274D"/>
<path d="M100.508 30.4904C100.295 31.245 100.092 32.0093 99.8988 32.7833C99.7536 33.2767 99.5214 33.8862 99.6665 34.4086C99.8987 35.3374 100.944 35.5986 101.756 35.7437C102.018 35.8018 102.134 35.3955 101.872 35.3664C100.886 35.1923 99.8407 34.844 100.102 33.596C100.334 32.6091 100.624 31.5933 100.886 30.6065C100.973 30.3453 100.566 30.2292 100.508 30.4904Z" fill="#EA8883"/>
<path d="M99.7246 38.53C100.16 40.4456 102.047 41.6356 103.933 41.2002C105.849 40.7648 107.039 38.8783 106.603 36.9917L99.7246 38.53Z" fill="white"/>
<path d="M109.216 24.6275C109.158 24.3953 108.867 24.2792 108.606 24.2502C107.387 24.0761 106.168 24.2212 104.949 24.4824C104.543 24.5695 103.411 24.7146 103.585 25.2951C103.701 25.6724 104.369 25.9336 104.775 25.8756C105.723 25.7982 106.662 25.6821 107.59 25.5273C108.113 25.4692 109.361 25.3531 109.216 24.6275Z" fill="#25274D"/>
<path d="M97.2865 25.9333C96.0965 25.6431 94.8775 25.6431 93.6585 25.7882C93.3102 25.8172 92.9329 25.8172 92.6136 25.9333C92.4685 25.9914 92.3233 26.0494 92.2653 26.1655C92.1492 26.2816 92.1782 26.5719 92.2653 26.717C92.3524 26.8331 92.5265 26.9201 92.7007 26.9782C93.2231 27.0943 93.8036 27.0653 94.3551 27.0653C94.9355 27.0459 95.516 27.0266 96.0965 27.0072C96.6189 27.0072 97.896 27.0362 97.838 26.3397C97.8089 26.1365 97.5477 25.9914 97.2865 25.9333Z" fill="#25274D"/>
</svg>
