<svg width="302" height="283" viewBox="0 0 302 283" fill="none" xmlns="http://www.w3.org/2000/svg">
<path d="M143.183 273.083H107.084V278.237H143.183V273.083Z" fill="#1F202D"/>
<path d="M128.875 197.062H121.393V274.093H128.875V197.062Z" fill="#2A2B3D"/>
<path d="M148.897 197.062H101.371C95.9109 197.062 91.4111 192.387 91.4111 186.596V167.843H158.857V186.596C158.857 192.387 154.357 197.062 148.897 197.062Z" fill="#2A2B3D"/>
<path d="M136.864 197.062H113.404V202.268H136.864V197.062Z" fill="#1F202D"/>
<path d="M209.77 249.709C210.882 258.474 213.966 268.302 217.808 270.587C221.701 272.871 246.93 263.681 248.953 258.315C250.925 252.896 235.403 258.846 231.662 253.481C227.87 248.115 219.982 239.456 219.982 239.456L209.77 249.709Z" fill="#D35473"/>
<path d="M226.353 248.487L209.618 255.234C209.618 255.234 183.782 222.509 178.069 208.218C172.306 193.874 123.162 128.159 123.162 128.159L154.054 131.984C161.587 137.243 170.132 142.343 178.069 147.656C187.878 154.243 196.624 161.256 201.023 169.384C207.04 180.593 218.668 220.809 223.825 239.19C225.393 244.874 226.353 248.487 226.353 248.487Z" fill="#455199"/>
<path d="M226.353 248.487L209.618 255.234C209.618 255.234 183.782 222.509 178.069 208.218C172.306 193.874 123.162 128.159 123.162 128.159L154.054 131.984C161.587 137.243 170.132 142.343 178.069 147.656C175.794 157.006 195.411 171.668 196.877 193.768C198.242 214.912 197.383 236.534 223.825 239.19C225.393 244.874 226.353 248.487 226.353 248.487Z" fill="#323E7E"/>
<path d="M190.051 186.383C193.237 200.993 185.4 221.605 185.4 221.605L179.434 212.043L190.051 186.383Z" fill="#31344C"/>
<path d="M143.537 253.746C141.211 262.299 138.33 275.156 140.959 278.927C143.638 282.646 161.991 284.931 165.884 280.787C169.828 276.696 163.457 274.837 160.171 269.099C156.025 261.768 156.177 255.181 156.177 255.181L143.537 253.746Z" fill="#D35473"/>
<path d="M189.714 187.341C188.804 206.147 158.671 259.272 158.671 259.272L140.723 255.075C142.492 215.763 153.666 193.344 153.666 193.344C153.666 193.344 126.364 190.688 107.859 185.428C89.4051 180.169 69.6871 157.538 77.9282 134.162L122.774 128C122.774 128 129.802 132.144 139.256 138.466C157.812 150.791 185.821 171.244 189.36 184.366C189.63 185.393 189.748 186.384 189.714 187.341Z" fill="#455199"/>
<path d="M190.102 187.499C189.192 206.306 159.059 259.431 159.059 259.431L141.11 255.234C142.88 215.921 154.053 193.503 154.053 193.503C154.053 193.503 126.752 190.846 108.247 185.587C89.7928 180.327 70.0748 157.696 78.3159 134.321L123.162 128.159C123.162 128.159 130.19 132.302 139.644 138.624L139.897 139.102C139.897 139.102 106.225 150.099 109.663 171.562C113.151 193.024 147.329 191.803 161.081 191.643C172.76 191.59 183.681 188.296 189.748 184.524C190.018 185.551 190.136 186.543 190.102 187.499Z" fill="#2F3A79" fill-opacity="0.84"/>
<path d="M131.959 64.9396C127.763 79.124 118.763 119.924 75.6869 135.33C38.2226 148.665 21.2348 124.227 18.1506 101.277C17.7462 97.8772 17.5945 94.4771 17.7462 91.2365C18.8585 66.4271 35.7452 73.4927 56.5756 61.5927C77.3554 49.6396 66.1312 39.4927 74.878 19.7302C83.5741 -0.0854702 95.405 -0.722975 108.904 0.286401C122.404 1.24265 121.493 12.5583 121.493 12.5583C121.493 12.5583 125.791 19.9958 121.493 27.1146C121.898 27.7521 136.156 50.9146 131.959 64.9396Z" fill="#6D3744"/>
<path d="M131.959 64.9396C127.763 79.124 118.763 119.924 75.6867 135.33C38.2224 148.665 21.2345 124.227 18.1504 101.277C26.7454 110.149 48.2836 107.918 52.4295 89.2177C57.4348 66.8521 68.0017 62.549 76.3945 53.3052C84.7873 44.0614 76.4956 31.152 82.6638 22.7583L89.0848 15.1083L121.493 27.1145C121.898 27.752 136.155 50.9146 131.959 64.9396Z" fill="#542633"/>
<path d="M116.842 48.1522C132.97 50.2241 140.857 63.9304 142.779 83.1616C144.7 102.393 146.52 128.159 146.52 128.159L76.9507 134.427C76.9507 134.427 77.6079 72.8022 77.9113 71.4741C78.2147 70.0929 97.0227 49.321 97.0227 49.321L116.842 48.1522Z" fill="#D35473"/>
<path opacity="0.4" d="M91.9164 69.5614C93.1804 98.2489 115.072 100.905 123.162 101.224C131.251 101.49 143.133 86.8802 143.133 86.8802L151.728 118.224L145.206 123.005L76.3948 124.174C76.3948 124.174 74.3219 92.6177 75.1814 91.6614C76.0914 90.7583 91.9164 69.5614 91.9164 69.5614Z" fill="#8E253E"/>
<path d="M111.28 110.096C119.623 105.633 131.352 111.052 129.886 121.04H109.663L111.28 110.096Z" fill="#F4B8AB"/>
<path d="M97.0229 49.321C79.0238 49.1085 72.9062 57.7147 68.3559 71.4741C63.755 85.1804 58.6991 111.159 64.2606 119.977C69.8726 128.796 113.202 121.837 113.202 121.837L113.859 106.696L85.1415 103.137L91.4108 71.4741L97.0229 49.321Z" fill="#D35473"/>
<path d="M131.808 113.071L139.846 76.3083C141.414 69.0302 147.531 63.8239 154.66 63.7177L214.371 62.7083C218.516 62.6552 221.651 66.7458 220.69 71.0489L209.567 116.577C208.961 118.968 206.888 120.668 204.512 120.615L136.762 119.711C133.476 119.658 131.049 116.471 131.808 113.071Z" fill="#C3C9F4"/>
<path d="M136.358 112.592L144.245 76.4673C145.863 69.0829 152.082 63.7704 159.362 63.6642L218.82 62.6548C223.016 62.6017 226.1 66.6923 225.14 70.9423L214.118 116.205C213.461 118.808 211.236 120.561 208.708 120.561L141.616 119.658C138.127 119.605 135.549 116.152 136.358 112.592Z" fill="#E0E7FF"/>
<path d="M194.653 123.271L113.556 124.652C112.292 124.652 111.281 123.59 111.281 122.315C111.23 120.986 112.241 119.924 113.455 119.924L194.602 118.543C195.815 118.543 196.827 119.605 196.877 120.88C196.877 122.208 195.866 123.271 194.653 123.271Z" fill="#C3C9F4"/>
<path d="M213.764 122.952L132.667 124.333C131.403 124.333 130.392 123.271 130.392 121.996C130.341 120.668 131.353 119.605 132.617 119.605L213.713 118.224C214.927 118.224 215.938 119.287 215.988 120.562C215.988 121.89 215.028 122.952 213.764 122.952Z" fill="#C3C9F4"/>
<path d="M116.842 48.1522C121.544 52.296 119.37 55.1116 119.37 55.1116C119.37 55.1116 120.786 60.9022 116.943 61.8054C113.151 62.7085 110.573 59.9991 110.573 59.9991C110.573 59.9991 108.955 65.0991 104.961 64.3554C100.966 63.6116 101.725 57.0241 101.725 57.0241C101.725 57.0241 100.511 59.096 97.0229 57.0241C93.5848 54.9522 97.6801 49.321 97.6801 49.321L116.842 48.1522Z" fill="#E57797"/>
<path d="M117.348 16.0113C121.645 27.5925 121.392 41.9363 111.786 44.4332L112.342 48.6301C112.797 51.7644 110.724 54.6332 107.741 55.0582C104.809 55.4832 102.079 53.3582 101.624 50.2238L101.068 46.0269C101.068 46.0269 92.8265 43.7425 90.5514 38.855C88.3268 33.9675 90.4503 38.005 90.4503 38.005L86.9111 17.2332L113.606 13.2488L117.348 16.0113Z" fill="#F4B8AB"/>
<path d="M89.894 30.0896C86.8099 25.7864 84.1808 28.1771 83.9786 30.9927C83.7763 33.8083 89.8434 39.6521 90.8041 37.1021C91.8152 34.6052 89.894 30.0896 89.894 30.0896Z" fill="#F4B8AB"/>
<path d="M102.028 29.5052C101.422 29.6114 101.017 28.9031 100.815 27.3802C100.613 25.8218 100.798 25.0073 101.371 24.9364C101.978 24.8302 102.382 25.5562 102.585 27.1146C102.787 28.6375 102.601 29.4344 102.028 29.5052Z" fill="#191918"/>
<path d="M112.545 27.9646C111.938 28.0354 111.533 27.3094 111.331 25.7865C111.129 24.2636 111.331 23.449 111.938 23.3427C112.511 23.2719 112.915 23.9979 113.151 25.5208C113.354 27.0438 113.151 27.8584 112.545 27.9646Z" fill="#191918"/>
<path d="M109.663 35.9331C104.657 36.8362 100.208 33.5956 100.208 33.5956" stroke="#E56A85" stroke-width="0.996644" stroke-miterlimit="10" stroke-linecap="round"/>
<g opacity="0.5">
<path d="M111.786 44.4332C107.539 45.4957 102.483 46.0801 102.483 46.0801L112.342 48.6301L111.786 44.4332Z" fill="#DD6595"/>
</g>
<g opacity="0.5">
<path d="M89.7929 31.4176C87.2649 29.2926 86.3548 30.4614 86.8099 32.9583C87.3155 35.402 90.3996 36.7833 91.2591 35.9333C92.068 35.0833 89.7929 31.4176 89.7929 31.4176Z" fill="#DD6595"/>
</g>
<path d="M112.342 8.89274C115.983 21.8552 91.4109 30.249 85.6471 27.9646C79.8328 25.6271 79.4283 16.7021 87.5178 10.9646C95.6073 5.2271 111.129 4.53648 112.342 8.89274Z" fill="#6D3744"/>
<path d="M24.8751 276.749H15.1172V131.983H24.8751V276.749Z" fill="#C46C3B" fill-opacity="0.7"/>
<path d="M286.215 276.749H276.457V131.983H286.215V276.749Z" fill="#C46C3B" fill-opacity="0.7"/>
<path d="M24.8751 151.321H15.1172V131.983H24.8751V151.321Z" fill="#AA5327" fill-opacity="0.7"/>
<path d="M286.215 151.321H276.457V131.983H286.215V151.321Z" fill="#AA5327" fill-opacity="0.7"/>
<path d="M301.332 135.065H0V124.333H301.332V135.065Z" fill="#C46C3B" fill-opacity="0.7"/>
<path d="M250.747 102.791C244.449 100.991 241.009 101.695 239.086 99.7198C239.086 99.7198 244.196 99.0156 247.029 99.7198L250.747 102.791Z" fill="#7C9E1E"/>
<path d="M247.029 99.7199C239.39 96.6293 237.138 93.128 235.191 90.722C233.243 88.2965 232.181 86.3013 231.422 86.1253C230.663 85.9688 234.533 86.5556 238.201 89.3723C241.869 92.2086 243.386 92.6389 246.295 94.8884C249.204 97.1379 251.784 100.444 252.113 102.791H250.747L247.029 99.7199Z" fill="#B7AC15"/>
<path d="M249.204 98.8788C245.081 93.9886 248.774 91.1719 243.816 85.6362C237.998 79.1421 239.82 72.6284 240.68 68.5598C240.68 68.5598 239.39 73.313 244.449 77.9293C249.507 82.5456 254.465 84.3452 254.895 91.2306C255.325 98.1355 253.605 102.791 253.605 102.791H250.747L249.204 98.8788Z" fill="#7C9E1E"/>
<path d="M252.948 102.791C251.556 98.1941 254.263 90.3895 254.465 82.6239C254.693 74.8779 249.078 69.1466 257.374 61.8896C257.374 61.8896 255.654 63.2198 258.032 68.5598C260.41 73.8803 265.671 79.4746 263.091 86.6338C260.511 93.793 254.946 99.6612 254.971 102.791H252.948Z" fill="#B7AC15"/>
<path d="M254.971 102.791C254.111 97.2749 261.371 88.7073 267.517 86.7904C267.517 86.7904 268.15 91.0155 264.178 94.4386C260.182 97.8813 257.222 102.791 257.222 102.791H254.971Z" fill="#A88F14"/>
<path d="M257.223 102.791C257.501 99.1332 261.573 97.8422 265.772 96.9033C265.772 96.9033 260.713 100.855 259.853 102.791H257.223Z" fill="#426313"/>
<path opacity="0.4" d="M259.196 103.202C259.904 100.424 261.523 99.5635 261.219 99.407C260.941 99.2505 259.095 101.578 258.159 102.791C258.159 102.791 256.944 99.6221 258.791 96.9032C260.612 94.1843 262.358 92.1304 262.358 92.1304C262.358 92.1304 256.439 97.4314 256.135 100.111C256.135 100.111 255.503 97.4118 256.54 93.93C257.552 90.4678 260.208 87.1425 259.246 83.0347C258.26 78.927 257.223 74.5259 257.223 74.5259C257.223 74.5259 257.653 78.7118 258.159 82.3306C258.69 85.9688 257.299 87.8662 255.933 91.7392C254.592 95.6122 255.351 101.128 254.769 101.089C254.187 101.07 253.251 102.087 253.251 102.087C253.251 102.087 252.644 96.1599 251.734 91.0937C250.798 86.0471 250.899 85.3625 246.928 82.3306C242.931 79.3182 242.425 77.4795 242.425 77.4795C242.425 77.4795 245.107 81.6068 247.358 84.3062C249.584 86.986 250.292 88.1792 250.292 92.9129C250.292 97.6661 250.596 100.326 251.101 101.089C251.633 101.852 247.333 96.5902 243.943 94.7907C240.579 92.9911 237.822 90.546 237.518 90.1548C237.215 89.7636 240.781 94.732 243.437 96.0817C246.093 97.4313 250.747 102.009 250.747 102.009L243.134 100.424L251.734 103.202H259.196Z" fill="#426313"/>
<path d="M265.975 104.258L261.927 122.273C261.877 122.495 261.784 122.691 261.649 122.86C261.219 123.408 260.46 123.779 259.6 123.779H245.056C243.918 123.779 242.931 123.134 242.754 122.254L238.96 104.238C238.707 103.123 239.82 102.126 241.262 102.126H263.647C265.115 102.126 266.202 103.143 265.975 104.258Z" fill="#3A3852"/>
<path opacity="0.5" d="M261.649 122.86C261.219 123.408 260.46 123.779 259.6 123.779H245.056C243.918 123.779 242.931 123.134 242.754 122.254L238.96 104.238C238.707 103.123 239.82 102.126 241.262 102.126H248.977C241.843 110.693 253.732 120.65 261.649 122.86Z" fill="#232433"/>
</svg>
